<svg width="182" height="103" viewBox="0 0 182 103" fill="none" xmlns="http://www.w3.org/2000/svg">
<g clip-path="url(#clip0_494_919)">
<path d="M30.3923 84.0723C31.9447 86.5324 33.8359 88.7616 36.0102 90.6941C36.0599 90.7394 36.1109 90.7828 36.1619 90.8273L40.8042 88.069C40.7698 88.0223 40.7319 87.97 40.6913 87.9127C38.2674 84.5382 27.3206 62.0882 27.2537 57.1167C27.2453 57.5282 23.3141 72.9795 30.3923 84.0723Z" fill="#E6E6E6"/>
<path d="M35.1145 91.2264C35.1862 91.2587 35.2594 91.29 35.3331 91.3199L38.8159 89.2505C38.7615 89.2191 38.698 89.182 38.6253 89.1404C37.4331 88.4439 33.8856 86.3512 30.3927 84.0721C26.6397 81.6225 22.9476 78.9593 22.3069 77.582C22.4403 77.899 26.5725 87.5303 35.1145 91.2264Z" fill="#E6E6E6"/>
<path d="M167.24 93.1229C167.162 96.0308 166.675 98.9133 165.793 101.685C165.774 101.75 165.752 101.813 165.731 101.877H160.331C160.337 101.82 160.342 101.755 160.348 101.685C160.708 97.5462 158.651 72.6543 156.169 68.3462C156.387 68.6957 167.659 79.9709 167.24 93.1229Z" fill="#E6E6E6"/>
<path d="M166.835 101.685C166.79 101.75 166.743 101.814 166.695 101.877H162.644C162.674 101.823 162.71 101.758 162.751 101.685C163.42 100.478 165.401 96.8664 167.24 93.1229C169.215 89.0999 171.029 84.9243 170.876 83.4131C170.923 83.7537 172.29 94.1445 166.835 101.685Z" fill="#E6E6E6"/>
<path d="M103.623 101.727H41.1759C39.6958 101.726 38.2768 101.137 37.2302 100.09C36.1836 99.0438 35.5949 97.6247 35.5932 96.1446V5.5827C35.5949 4.10259 36.1836 2.68358 37.2302 1.63698C38.2768 0.590383 39.6958 0.00167079 41.1759 0H103.623C105.103 0.00167079 106.522 0.590382 107.568 1.63698C108.615 2.68357 109.204 4.10258 109.205 5.58269V96.1447C109.204 97.6248 108.615 99.0438 107.568 100.09C106.522 101.137 105.103 101.726 103.623 101.727Z" fill="#CACACA"/>
<path d="M103.733 98.1651H41.066C40.6098 98.1646 40.1723 97.9831 39.8497 97.6605C39.5271 97.3379 39.3456 96.9004 39.3451 96.4442V5.28245C39.3456 4.82619 39.5271 4.38877 39.8497 4.06615C40.1723 3.74352 40.6098 3.56204 41.066 3.56152H103.733C104.189 3.56204 104.626 3.74352 104.949 4.06615C105.272 4.38877 105.453 4.82619 105.454 5.28245V96.4442C105.453 96.9004 105.272 97.3379 104.949 97.6605C104.626 97.9831 104.189 98.1646 103.733 98.1651Z" fill="white"/>
<path d="M56.1619 2.18421C56.4242 2.18421 56.6368 1.97158 56.6368 1.70929C56.6368 1.447 56.4242 1.23438 56.1619 1.23438C55.8996 1.23438 55.687 1.447 55.687 1.70929C55.687 1.97158 55.8996 2.18421 56.1619 2.18421Z" fill="white"/>
<path d="M181.767 102.056H0.232844C0.17109 102.056 0.111865 102.031 0.0681984 101.988C0.0245314 101.944 0 101.885 0 101.823C0 101.761 0.0245314 101.702 0.0681984 101.659C0.111865 101.615 0.17109 101.59 0.232844 101.59H181.767C181.829 101.59 181.888 101.615 181.932 101.659C181.975 101.702 182 101.761 182 101.823C182 101.885 181.975 101.944 181.932 101.988C181.888 102.031 181.829 102.056 181.767 102.056Z" fill="#CACACA"/>
<path d="M72.3988 75.5523C75.7469 75.5523 78.4611 72.8381 78.4611 69.49C78.4611 66.1419 75.7469 63.4277 72.3988 63.4277C69.0507 63.4277 66.3365 66.1419 66.3365 69.49C66.3365 72.8381 69.0507 75.5523 72.3988 75.5523Z" fill="#E4E4E4"/>
<path d="M76.1942 57.8544H68.6034L64.0208 35.4376C63.9031 34.2671 64.0319 33.0848 64.399 31.9671C64.7662 30.8494 65.3634 29.8211 66.1523 28.9483C66.9412 28.0756 67.9042 27.3778 68.9793 26.9C70.0544 26.4222 71.2176 26.175 72.3941 26.1743C73.5706 26.1736 74.7341 26.4195 75.8097 26.896C76.8854 27.3725 77.8492 28.0691 78.6392 28.9409C79.4291 29.8127 80.0276 30.8404 80.396 31.9577C80.7645 33.0749 80.8947 34.257 80.7784 35.4277L76.1942 57.8544Z" fill="#E4E4E4"/>
<path d="M124.665 48.8331C124.756 48.8919 124.842 48.9577 124.922 49.03L134.32 46.6344L134.961 44.3672L138.509 44.8875L137.764 49.0114C137.704 49.3446 137.537 49.6492 137.289 49.8796C137.041 50.11 136.725 50.2537 136.389 50.2892L125.416 51.4447C125.237 51.8213 124.948 52.1344 124.586 52.3426C124.225 52.5507 123.809 52.644 123.394 52.61C122.978 52.5759 122.583 52.4162 122.261 52.1521C121.938 51.8879 121.704 51.5318 121.589 51.1312C121.473 50.7305 121.483 50.3043 121.616 49.9093C121.749 49.5142 121.999 49.1689 122.333 48.9195C122.667 48.67 123.069 48.5281 123.485 48.5127C123.902 48.4972 124.313 48.609 124.665 48.8331Z" fill="#FFB6B6"/>
<path d="M117.958 57.336C121.306 57.336 124.021 54.6218 124.021 51.2737C124.021 47.9256 121.306 45.2114 117.958 45.2114C114.61 45.2114 111.896 47.9256 111.896 51.2737C111.896 54.6218 114.61 57.336 117.958 57.336Z" fill="#B3261E"/>
<path d="M121.754 39.6381H114.163L109.58 17.2213C109.463 16.0508 109.591 14.8685 109.959 13.7508C110.326 12.6331 110.923 11.6047 111.712 10.732C112.501 9.85924 113.464 9.16149 114.539 8.6837C115.614 8.20591 116.777 7.95871 117.954 7.95801C119.13 7.95731 120.294 8.20314 121.369 8.67965C122.445 9.15616 123.409 9.85278 124.199 10.7246C124.989 11.5964 125.587 12.6241 125.956 13.7413C126.324 14.8586 126.454 16.0407 126.338 17.2114L121.754 39.6381Z" fill="#B3261E"/>
<path d="M139.143 46.9452L136.722 49.0337L133.335 51.9534L131.839 44.2993L131.683 43.5034L131.56 42.8717L134.992 36.8936L137.853 37.0578L138.048 37.0696L138.052 37.1126L138.097 37.5135L138.684 42.7896L138.698 42.9167L139.143 46.9452Z" fill="#AF52DE"/>
<path d="M123.319 99.2911L120.922 99.291L119.781 90.0435L123.32 90.0437L123.319 99.2911Z" fill="#FFB6B6"/>
<path d="M123.931 101.615L116.2 101.614V101.517C116.2 100.719 116.517 99.9534 117.082 99.3891C117.646 98.8249 118.411 98.5079 119.209 98.5078H119.209L123.931 98.508L123.931 101.615Z" fill="#2F2E41"/>
<path d="M148.351 99.4865L145.953 99.4863L144.812 90.2388L148.351 90.239L148.351 99.4865Z" fill="#FFB6B6"/>
<path d="M148.962 101.811L141.231 101.81V101.712C141.232 100.914 141.549 100.149 142.113 99.5849C142.677 99.0207 143.442 98.7037 144.24 98.7036H144.241L148.962 98.7038L148.962 101.811Z" fill="#2F2E41"/>
<path d="M150.267 95.4138L143.813 96.3916L134.425 64.6175L124.453 96.5871L117.218 95.6093L126.604 58.4535V55.5202L127.876 51.1201L127.742 49.9292L126.818 41.6004L126.417 37.9885L126.391 37.7552C126.369 37.5594 126.421 37.3624 126.536 37.2028C126.652 37.0431 126.822 36.9321 127.015 36.8914L130.027 36.2578H134.949L137.853 37.0576L138.052 37.1124L138.142 37.1378L138.097 37.5133L137.417 43.2196L137.38 43.5325L136.722 49.0335L136.578 50.2401C142.249 54.3468 142.444 58.4535 142.444 58.4535L150.267 95.4138Z" fill="#2F2E41"/>
<path d="M131.893 33.7844C134.546 33.7844 136.696 31.634 136.696 28.9813C136.696 26.3286 134.546 24.1782 131.893 24.1782C129.24 24.1782 127.09 26.3286 127.09 28.9813C127.09 31.634 129.24 33.7844 131.893 33.7844Z" fill="#FFB6B6"/>
<path d="M136.938 49.1369L127.436 50.3794L127.614 51.7367L137.115 50.4942L136.938 49.1369Z" fill="#AF52DE"/>
<path d="M114.691 50.7887C114.782 50.8474 114.868 50.9133 114.949 50.9856L124.347 48.5899L124.988 46.3228L128.536 46.8431L127.791 50.967C127.731 51.3001 127.564 51.6048 127.316 51.8352C127.068 52.0656 126.752 52.2093 126.415 52.2447L115.442 53.4003C115.263 53.7768 114.974 54.09 114.613 54.2982C114.252 54.5063 113.836 54.5996 113.42 54.5655C113.005 54.5315 112.61 54.3718 112.287 54.1076C111.965 53.8435 111.73 53.4874 111.615 53.0867C111.5 52.6861 111.509 52.2599 111.642 51.8648C111.775 51.4697 112.026 51.1245 112.359 50.875C112.693 50.6256 113.095 50.4837 113.512 50.4682C113.929 50.4528 114.34 50.5646 114.691 50.7887Z" fill="#FFB6B6"/>
<path d="M129.147 38.1161L127.484 36.845C127.035 36.6745 126.419 37.1589 126.311 37.6272L123.964 47.2095L128.853 50.7295L129.538 49.654L129.147 38.1161Z" fill="#AF52DE"/>
<g opacity="0.2">
<path d="M138.684 42.7894C138.269 42.9541 137.846 43.0977 137.417 43.2196C137.28 43.2607 137.139 43.2998 137 43.337C136.085 43.5909 135.144 43.743 134.196 43.7907C133.787 43.8079 133.378 43.7968 132.972 43.7574C132.535 43.7139 132.103 43.6288 131.683 43.5032C131.669 43.4993 131.654 43.4954 131.64 43.4914C130.765 43.2432 129.964 42.7877 129.303 42.1636C129.155 42.0198 129.017 41.8663 128.89 41.7041C128.525 41.2568 128.257 40.7384 128.104 40.1818C127.95 39.6252 127.914 39.0427 127.999 38.4715C128.015 38.368 128.037 38.2655 128.065 38.1645C128.139 37.8893 128.236 37.621 128.356 37.3627C128.409 37.2415 128.468 37.1222 128.531 37.0048L130.74 36.2578H134.949L137.853 37.0576L138.048 37.0694L138.052 37.1124L138.142 37.1378L138.097 37.5133L138.684 42.7894Z" fill="black"/>
</g>
<path d="M128.212 25.0048C127.314 24.8947 126.328 24.9726 125.628 25.546C124.928 26.1194 124.702 27.3114 125.365 27.9275C125.952 28.4729 126.87 28.3447 127.656 28.4998C128.333 28.6515 128.939 29.0261 129.378 29.5635C129.817 30.1008 130.064 30.77 130.077 31.4638C130.066 33.4534 128.156 34.9601 127.813 36.92C127.579 38.2575 128.143 39.6652 129.118 40.6101C130.094 41.5549 131.434 42.0655 132.785 42.2038C134.136 42.3421 135.502 42.1309 136.815 41.7838C138.133 41.4353 139.431 40.9409 140.537 40.1435C141.643 39.3461 142.55 38.222 142.905 36.9055C143.26 35.589 143.005 34.0795 142.09 33.0687C141.042 31.9112 139.299 31.5132 138.392 30.2418C137.376 28.8166 137.752 26.787 136.93 25.2419C136.381 24.2104 135.341 23.5067 134.233 23.1361C133.124 22.7654 131.941 22.6923 130.773 22.6564C130.159 22.6375 129.526 22.6312 128.954 22.855C128.382 23.0789 127.879 23.589 127.849 24.2025C127.82 24.8161 128.212 25.0048 128.212 25.0048Z" fill="#2F2E41"/>
</g>
<defs>
<clipPath id="clip0_494_919">
<rect width="182" height="102.056" fill="white"/>
</clipPath>
</defs>
</svg>
