<svg width="18" height="17" viewBox="0 0 18 17" fill="none" xmlns="http://www.w3.org/2000/svg">
<path d="M4.25 13.25H10.75V11.75H4.25V13.25ZM4.25 9.25H13.75V7.75H4.25V9.25ZM4.25 5.25H13.75V3.75H4.25V5.25ZM2.30775 17C1.80258 17 1.375 16.825 1.025 16.475C0.675 16.125 0.5 15.6974 0.5 15.1923V1.80775C0.5 1.30258 0.675 0.875 1.025 0.525C1.375 0.175 1.80258 0 2.30775 0H15.6923C16.1974 0 16.625 0.175 16.975 0.525C17.325 0.875 17.5 1.30258 17.5 1.80775V15.1923C17.5 15.6974 17.325 16.125 16.975 16.475C16.625 16.825 16.1974 17 15.6923 17H2.30775ZM2.30775 15.5H15.6923C15.7692 15.5 15.8398 15.4679 15.9038 15.4038C15.9679 15.3398 16 15.2692 16 15.1923V1.80775C16 1.73075 15.9679 1.66025 15.9038 1.59625C15.8398 1.53208 15.7692 1.5 15.6923 1.5H2.30775C2.23075 1.5 2.16025 1.53208 2.09625 1.59625C2.03208 1.66025 2 1.73075 2 1.80775V15.1923C2 15.2692 2.03208 15.3398 2.09625 15.4038C2.16025 15.4679 2.23075 15.5 2.30775 15.5Z" fill="#4F4FDC"/>
</svg>
