<svg width="18" height="18" viewBox="0 0 18 18" fill="none" xmlns="http://www.w3.org/2000/svg">
<path d="M2.05775 18C1.55258 18 1.125 17.825 0.775 17.475C0.425 17.125 0.25 16.6974 0.25 16.1923V2.80775C0.25 2.30258 0.425 1.875 0.775 1.525C1.125 1.175 1.55258 1 2.05775 1H11.2115V2.5H2.05775C1.96792 2.5 1.89417 2.52883 1.8365 2.5865C1.77883 2.64417 1.75 2.71792 1.75 2.80775V16.1923C1.75 16.2821 1.77883 16.3558 1.8365 16.4135C1.89417 16.4712 1.96792 16.5 2.05775 16.5H15.4423C15.5321 16.5 15.6058 16.4712 15.6635 16.4135C15.7212 16.3558 15.75 16.2821 15.75 16.1923V7.0385H17.25V16.1923C17.25 16.6974 17.075 17.125 16.725 17.475C16.375 17.825 15.9474 18 15.4423 18H2.05775ZM4.1155 14.25H5.61525V7.75H4.1155V14.25ZM8 14.25H9.5V4.75H8V14.25ZM11.8845 14.25H13.3845V10.75H11.8845V14.25ZM14.25 6V4H12.25V2.5H14.25V0.5H15.75V2.5H17.75V4H15.75V6H14.25Z" fill="#4F4FDC"/>
</svg>
