<svg width="14" height="14" viewBox="0 0 14 14" fill="none" xmlns="http://www.w3.org/2000/svg">
<path d="M3.20768 10.792H8.79102V9.70866H3.20768V10.792ZM3.20768 7.54199H10.791V6.45866H3.20768V7.54199ZM3.20768 4.29199H10.791V3.20866H3.20768V4.29199ZM1.75581 13.5837C1.38067 13.5837 1.06358 13.4541 0.804557 13.1951C0.545529 12.9361 0.416016 12.619 0.416016 12.2439V1.75678C0.416016 1.38164 0.545529 1.06456 0.804557 0.805534C1.06358 0.546507 1.38067 0.416992 1.75581 0.416992H12.2429C12.618 0.416992 12.9351 0.546507 13.1941 0.805534C13.4532 1.06456 13.5827 1.38164 13.5827 1.75678V12.2439C13.5827 12.619 13.4532 12.9361 13.1941 13.1951C12.9351 13.4541 12.618 13.5837 12.2429 13.5837H1.75581ZM1.75581 12.5003H12.2429C12.3071 12.5003 12.3658 12.4736 12.4191 12.4201C12.4726 12.3668 12.4993 12.308 12.4993 12.2439V1.75678C12.4993 1.69262 12.4726 1.63387 12.4191 1.58053C12.3658 1.52706 12.3071 1.50033 12.2429 1.50033H1.75581C1.69164 1.50033 1.63289 1.52706 1.57956 1.58053C1.52609 1.63387 1.49935 1.69262 1.49935 1.75678V12.2439C1.49935 12.308 1.52609 12.3668 1.57956 12.4201C1.63289 12.4736 1.69164 12.5003 1.75581 12.5003Z" fill="#717AEA"/>
</svg>
