<svg width="17" height="19" viewBox="0 0 17 19" fill="none" xmlns="http://www.w3.org/2000/svg">
<path d="M4.11966 18.3882C3.62053 18.3882 3.19425 18.2116 2.84081 17.8584C2.48756 17.5049 2.31094 17.0786 2.31094 16.5795V3.42573H0.960938V1.96323H5.79844V0.743164H11.1984V1.96323H16.0359V3.42573H14.6859V16.5674C14.6859 17.0875 14.5111 17.521 14.1614 17.8679C13.8117 18.2148 13.3837 18.3882 12.8772 18.3882H4.11966ZM13.2234 3.42573H3.77344V16.5795C3.77344 16.6806 3.80587 16.7635 3.87075 16.8284C3.93562 16.8933 4.01859 16.9257 4.11966 16.9257H12.8772C12.9638 16.9257 13.0432 16.8896 13.1152 16.8174C13.1873 16.7454 13.2234 16.6661 13.2234 16.5795V3.42573ZM6.25294 14.9007H7.71516V5.45073H6.25294V14.9007ZM9.28172 14.9007H10.7439V5.45073H9.28172V14.9007Z" fill="#1C1B1F"/>
</svg>
