<svg width="84" height="101" viewBox="0 0 84 101" fill="none" xmlns="http://www.w3.org/2000/svg">
<g clip-path="url(#clip0_503_1461)">
<path d="M32.5439 82.5766C30.8742 80.8546 28.4546 79.8671 25.9055 79.8671L25.8071 79.8674C24.1281 79.868 22.479 79.4227 21.0286 78.5769L20.8777 78.4889L20.9992 78.3637C21.6574 77.6828 22.2069 76.9047 22.6286 76.0568C22.3291 76.3361 21.9719 76.546 21.5822 76.6719C21.1926 76.7978 20.78 76.8365 20.3738 76.7852C19.9449 76.7341 19.5331 76.5865 19.1694 76.3536C18.8057 76.1206 18.4994 75.8083 18.2736 75.4401C17.3827 73.9945 16.3207 71.9433 16.3207 70.3808C16.3221 69.06 16.5986 67.754 17.1327 66.546C17.6668 65.338 18.4467 64.2546 19.4227 63.3647C20.0406 62.8076 20.5341 62.1264 20.8711 61.3658C21.2081 60.6051 21.381 59.7819 21.3786 58.95L21.3781 58.8315C21.3779 57.7362 21.5117 56.6449 21.7766 55.5821L21.8035 55.4748L21.914 55.4786C22.6261 55.5029 23.3385 55.4432 24.0367 55.3008C23.3818 55.2205 22.7412 55.0501 22.133 54.7945L22.0142 54.7464L22.0545 54.6247C24.8336 52.904 31.1068 53.795 34.748 45.4642C37.7005 38.7091 48.1179 51.4608 48.1179 58.8316C48.1179 59.5837 47.3736 60.5775 47.9308 61.0746C53.9542 66.4483 49.7981 69.899 48.4878 73.3712C48.1769 74.195 48.851 75.0994 48.851 75.9907C48.851 76.1419 48.8472 76.298 48.8395 76.4546L48.8279 76.6955L48.6271 76.5618C48.2298 76.3016 47.8615 75.9995 47.5286 75.6608C47.874 76.4557 48.0368 77.3179 48.005 78.1841C47.9732 79.0502 47.7475 79.8982 47.3447 80.6656C46.7135 81.857 46.1028 82.7099 45.5296 83.2005C43.6936 84.7717 41.3267 85.5822 38.9129 85.4662C36.4991 85.3503 34.2208 84.3166 32.5439 82.5766Z" fill="#E6E6E6"/>
<path d="M42.6282 100.5C42.6693 100.5 42.7089 100.486 42.7399 100.459C42.7709 100.432 42.7911 100.395 42.7969 100.354C42.8042 100.303 43.5141 95.1827 42.8765 88.3776C42.2876 82.0929 40.3966 73.0408 34.7318 65.6064C34.7183 65.5886 34.7013 65.5736 34.6819 65.5623C34.6626 65.551 34.6412 65.5436 34.619 65.5406C34.5967 65.5376 34.5741 65.539 34.5525 65.5447C34.5308 65.5504 34.5104 65.5604 34.4926 65.574C34.4748 65.5876 34.4598 65.6045 34.4485 65.6239C34.4373 65.6433 34.4299 65.6647 34.4269 65.6869C34.4239 65.7092 34.4254 65.7318 34.4311 65.7534C34.4369 65.7751 34.4468 65.7954 34.4604 65.8132C40.0763 73.1834 41.9521 82.1691 42.5368 88.4094C43.1707 95.1749 42.4663 100.255 42.4591 100.306C42.4557 100.33 42.4575 100.355 42.4644 100.378C42.4713 100.402 42.4832 100.423 42.4993 100.442C42.5153 100.46 42.5351 100.475 42.5574 100.485C42.5796 100.495 42.6038 100.5 42.6282 100.5Z" fill="#3F3D56"/>
<path d="M38.0054 76.0926C38.0415 76.0926 38.0766 76.0812 38.1058 76.0601C38.1349 76.0389 38.1567 76.009 38.1678 75.9748C38.179 75.9405 38.179 75.9036 38.1679 75.8693C38.1567 75.835 38.135 75.8051 38.1059 75.784C36.4918 74.6914 34.748 73.8037 32.9149 73.1415C30.0509 72.0929 25.6958 71.1424 21.2123 72.5693C21.1909 72.5761 21.1711 72.587 21.1539 72.6014C21.1367 72.6159 21.1226 72.6335 21.1122 72.6535C21.1019 72.6734 21.0956 72.6951 21.0937 72.7175C21.0918 72.7398 21.0943 72.7624 21.1011 72.7837C21.1079 72.8051 21.1189 72.8249 21.1333 72.8421C21.1478 72.8592 21.1655 72.8733 21.1855 72.8836C21.2054 72.8939 21.2272 72.9001 21.2495 72.902C21.2719 72.9039 21.2944 72.9013 21.3158 72.8944C25.7074 71.4968 29.9836 72.4316 32.7976 73.4619C34.6013 74.1128 36.317 74.9856 37.9053 76.06C37.9344 76.0812 37.9695 76.0926 38.0054 76.0926Z" fill="#3F3D56"/>
<path d="M45.8137 56.6449C45.8164 56.609 45.8075 56.5731 45.7885 56.5425C45.7695 56.5119 45.7413 56.4881 45.7079 56.4745C45.6745 56.4609 45.6377 56.4582 45.6027 56.4669C45.5677 56.4755 45.5364 56.495 45.5132 56.5225C44.3072 58.0538 43.2962 59.7291 42.5037 61.5098C41.2516 64.2908 39.9899 68.5661 41.0903 73.1407C41.0955 73.1626 41.1049 73.1831 41.1181 73.2013C41.1313 73.2194 41.1479 73.2348 41.167 73.2465C41.1861 73.2582 41.2074 73.2661 41.2295 73.2696C41.2517 73.2731 41.2743 73.2722 41.2961 73.2669C41.3179 73.2617 41.3384 73.2522 41.3566 73.239C41.3747 73.2258 41.39 73.2092 41.4017 73.1901C41.4134 73.1709 41.4212 73.1497 41.4247 73.1275C41.4282 73.1054 41.4273 73.0828 41.422 73.061C40.3443 68.5801 41.5846 64.3824 42.8148 61.6499C43.594 59.8977 44.588 58.2493 45.774 56.7425C45.7972 56.715 45.8112 56.6808 45.8137 56.6449Z" fill="#3F3D56"/>
<path d="M78.7209 100.32H65.1395L65.0812 100.214C64.9075 99.8987 64.7399 99.565 64.5832 99.2221C63.1842 96.2271 62.593 92.8017 62.0712 89.7795L61.6784 87.5015C61.6308 87.2256 61.6666 86.9418 61.7813 86.6864C61.8959 86.431 62.0842 86.2156 62.322 86.0679C62.5598 85.9201 62.8362 85.8466 63.116 85.8569C63.3958 85.8672 63.6661 85.9607 63.8924 86.1255C65.9564 87.6274 68.0212 89.1278 70.0868 90.6268C70.8689 91.1959 71.7621 91.8545 72.6176 92.5663C72.7001 92.1654 72.7864 91.7634 72.8728 91.3669C72.9323 91.0932 73.0722 90.8434 73.2744 90.6497C73.4767 90.4559 73.7323 90.3269 74.0083 90.2791C74.2843 90.2314 74.5683 90.2671 74.8239 90.3818C75.0796 90.4964 75.2951 90.6847 75.4431 90.9225L77.0321 93.4755C78.1911 95.3399 79.214 97.1771 79.0056 99.1585C79.0066 99.1826 79.0048 99.2068 79.0002 99.2305C78.9585 99.5559 78.8812 99.8758 78.7696 100.184L78.7209 100.32Z" fill="#F0F0F0"/>
<path d="M72.3934 46.9261L69.7723 37.2246C69.6601 36.8139 69.3908 36.4639 69.0227 36.2499C68.6546 36.036 68.2172 35.9754 67.8048 36.0811C67.5914 36.1358 67.3914 36.2334 67.217 36.3679C67.0426 36.5025 66.8974 36.6711 66.7903 36.8635C66.6832 37.056 66.6164 37.2683 66.594 37.4874C66.5716 37.7065 66.5941 37.9279 66.6601 38.138L69.6917 48.132L71.2778 54.2823C71.0468 54.4587 70.8757 54.702 70.7877 54.979C70.6998 55.256 70.6992 55.5534 70.7862 55.8307C70.8731 56.1081 71.0433 56.3519 71.2737 56.5292C71.504 56.7064 71.7834 56.8085 72.0737 56.8214C72.3641 56.8344 72.6514 56.7576 72.8966 56.6016C73.1419 56.4456 73.3331 56.2179 73.4444 55.9494C73.5557 55.6809 73.5817 55.3846 73.5187 55.1008C73.4558 54.8171 73.307 54.5596 73.0926 54.3633L72.3934 46.9261Z" fill="#A0616A"/>
<path d="M50.3375 44.8368L58.3014 38.7078C58.638 38.4471 58.8587 38.0646 58.9158 37.6426C58.9728 37.2207 58.8617 36.7933 58.6064 36.4526C58.4743 36.2763 58.3077 36.1288 58.1168 36.019C57.9258 35.9093 57.7145 35.8395 57.4957 35.8141C57.2769 35.7886 57.0553 35.808 56.8442 35.871C56.6332 35.9341 56.4372 36.0394 56.2682 36.1806L48.1908 42.8008L43.1131 46.6165C42.8618 46.4704 42.5717 46.4052 42.2821 46.4298C41.9925 46.4543 41.7174 46.5675 41.4943 46.7538C41.2713 46.9401 41.1109 47.1906 41.0352 47.4712C40.9594 47.7518 40.9718 48.0489 41.0708 48.3222C41.1698 48.5955 41.3505 48.8317 41.5883 48.9987C41.8262 49.1657 42.1097 49.2554 42.4004 49.2557C42.6911 49.2559 42.9747 49.1667 43.2129 49.0001C43.4511 48.8335 43.6322 48.5977 43.7317 48.3246L50.3375 44.8368Z" fill="#A0616A"/>
<path d="M56.8284 46.2456L56.4774 54.0857L67.4996 51.6901C66.5614 48.5398 65.9235 48.0025 66.6285 45.8101L56.8284 46.2456Z" fill="#A0616A"/>
<path d="M63.6057 31.8726H59.9331L58.3559 34.5715L57.6043 34.53C57.2367 34.5097 56.8689 34.5646 56.5232 34.6913C56.1776 34.818 55.8614 35.0138 55.594 35.2669C55.3267 35.5199 55.1137 35.8248 54.9681 36.1629C54.8226 36.5011 54.7475 36.8653 54.7475 37.2335L55.6735 38.6687C55.6735 38.6687 54.0174 41.5548 56.4029 42.9746C56.4029 42.9746 55.9775 45.6498 56.4029 45.621C56.8284 45.5923 57.8084 45.0478 56.8284 45.5923C55.8484 46.1367 55.9215 46.2098 56.0483 46.3366L56.1751 46.4634L66.4799 48.1937C66.4799 48.1937 66.7813 46.196 66.8138 45.8397C66.8463 45.4834 66.6285 46.3545 66.8463 45.4834C67.0641 44.6122 67.3907 44.9389 67.0641 44.6122C66.7374 44.2856 69.1807 40.2385 68.1768 38.6687L69.7863 37.0988C69.7863 35.593 67.3678 34.3723 65.862 34.3723H65.6691L63.6057 31.8726Z" fill="#E6E6E6"/>
<path d="M54.7569 97.2972H53.2703L52.5631 91.5635L54.757 91.5636L54.7569 97.2972Z" fill="#A0616A"/>
<path d="M50.2702 99.4905C50.2709 99.6571 50.3373 99.8166 50.4549 99.9344C50.5726 100.052 50.732 100.119 50.8985 100.12H53.6968L53.7835 99.9404L54.1793 99.1236L54.3326 99.9404L54.3665 100.12H55.422L55.4069 99.9391L55.1254 96.5641L54.7573 96.5415L53.1665 96.4472L52.7757 96.4233V97.4311C52.4792 97.7465 50.1521 98.9389 50.2702 99.4905Z" fill="#2F2E41"/>
<path d="M76.849 93.4036L75.5988 94.2078L71.902 89.7683L73.7472 88.5815L76.849 93.4036Z" fill="#A0616A"/>
<path d="M74.2624 97.6754C74.3531 97.815 74.4952 97.9133 74.6579 97.9488C74.8206 97.9842 74.9907 97.9541 75.1313 97.8649L77.4847 96.351L77.4604 96.1529L77.3514 95.2519L77.9222 95.8558L78.0479 95.9886L78.9356 95.4176L78.825 95.2735L76.7623 92.5874L76.4405 92.7676L75.0516 93.549L74.7101 93.7403L75.2553 94.5878C75.1765 95.0135 73.8646 97.2754 74.2624 97.6754Z" fill="#2F2E41"/>
<path d="M83.7833 100.424L37.754 100.469C37.7081 100.469 37.6641 100.45 37.6317 100.418C37.5993 100.385 37.5811 100.341 37.5811 100.295C37.5811 100.249 37.5993 100.205 37.6317 100.173C37.6641 100.14 37.7081 100.122 37.754 100.122L83.7833 100.077C83.8293 100.077 83.8732 100.095 83.9057 100.128C83.9381 100.16 83.9562 100.205 83.9562 100.25C83.9562 100.296 83.9381 100.34 83.9057 100.373C83.8732 100.406 83.8293 100.424 83.7833 100.424Z" fill="#CACACA"/>
<path d="M67.3269 50.8047C67.3269 50.8047 60.2813 54.5315 56.5547 51.9889C56.5547 51.9889 55.7396 55.937 55.4129 56.2637C55.0862 56.5904 54.5658 56.7327 54.9349 57.0971C55.304 57.4615 55.5095 57.9537 54.8078 58.5787C54.1062 59.2037 53.4066 59.0054 54.0831 59.649C54.7595 60.2926 52.0373 76.0817 52.0373 76.0817C52.0373 76.0817 52.4729 90.7648 52.0373 91.2089C51.6017 91.653 51.0196 91.7524 51.5829 92.3016C52.1462 92.8508 52.1462 92.4248 52.1462 93.1822V93.9397L52.4039 94.6925H55.9395C55.9395 94.6925 56.7927 93.7013 55.9395 92.8405C55.0862 91.9796 56.1991 91.7441 56.4593 90.9363C56.7196 90.1285 57.1551 90.9996 56.7196 90.1285C56.284 89.2574 56.0748 89.4231 56.0705 88.8503C56.0662 88.2774 62.4907 65.846 62.4907 65.846L63.2689 78.2615L72.6285 91.8585L75.3835 89.7923C75.3835 89.7923 73.3777 86.9687 73.8467 86.5804C74.3157 86.1922 72.4643 85.7054 73.0481 85.2675C73.632 84.8297 72.2265 84.3884 72.7562 83.8079C73.2859 83.2275 72.0264 81.7645 71.2966 81.7645C70.5668 81.7645 69.5426 79.3258 69.5426 79.3258L71.0716 60.0603L67.3269 50.8047Z" fill="#2F2E41"/>
<path d="M59.8592 23.9477C59.8094 24.0131 59.4121 23.9779 58.9344 23.9081C57.9899 23.7702 57.8612 23.9341 57.1551 24.5764C56.1323 25.5068 56.7138 31.1815 56.2112 32.411L56.0488 32.5307C56.3709 32.4691 56.6872 32.3806 56.9945 32.266C57.168 31.7185 57.342 31.1691 57.5172 30.622C57.6826 31.0477 57.7865 31.4948 57.826 31.9497C58.0691 31.8539 58.3108 31.6195 59.3268 31.3051C59.8383 30.9581 63.5394 30.6091 64.0152 30.4564C65.2227 26.3479 63.2767 24.6864 59.8592 23.9477Z" fill="#2F2E41"/>
<path d="M61.1088 30.2835C63.0621 30.2835 64.6456 28.7 64.6456 26.7467C64.6456 24.7934 63.0621 23.21 61.1088 23.21C59.1555 23.21 57.572 24.7934 57.572 26.7467C57.572 28.7 59.1555 30.2835 61.1088 30.2835Z" fill="#A0616A"/>
<path d="M63.3355 23.636C63.1362 23.6066 62.9443 23.5394 62.7703 23.4379C62.684 23.3858 62.6141 23.3104 62.5686 23.2205C62.5231 23.1306 62.5038 23.0296 62.5129 22.9293C62.5565 22.678 62.8406 22.5279 63.0952 22.5432C63.3486 22.5797 63.5895 22.6772 63.797 22.8272C63.7742 22.5844 63.6704 22.3562 63.5024 22.1794C63.3343 22.0026 63.1117 21.8875 62.8704 21.8524C63.2052 21.8344 63.5533 21.8184 63.8629 21.9472C64.1725 22.076 64.4306 22.3949 64.3747 22.7255C64.8953 22.6585 65.4086 23.0212 65.6235 23.5C65.8384 23.9788 65.7958 24.5411 65.6241 25.0371C65.6072 25.1131 65.5741 25.1845 65.5272 25.2465C65.4802 25.3086 65.4205 25.3598 65.352 25.3968C65.1768 25.4633 64.9883 25.3518 64.8365 25.2419C64.0435 24.6678 63.3218 24.0012 62.6866 23.2564" fill="#2F2E41"/>
<path d="M64.8776 30.5067C64.7276 30.5773 64.8057 30.8399 64.6892 30.9575C64.6386 31.0073 64.5776 31.0453 64.5106 31.0686C64.4931 30.8494 64.442 30.6342 64.3592 30.4305C64.344 30.3935 64.3189 30.3521 64.2797 30.3554C64.234 30.3608 64.222 30.4207 64.2209 30.4653C64.2117 30.6868 64.1627 30.9048 64.0761 31.1089C64.075 31.1111 64.0739 31.1143 64.0729 31.1165C64.0391 31.1154 64.0043 31.1143 63.9716 31.1132C63.719 31.1034 63.1593 30.4545 63.0351 30.6744C63.4729 29.898 64.0064 28.7307 64.0881 27.8433C64.1164 27.6575 64.1026 27.4677 64.0478 27.2879C64.0192 27.1985 63.9655 27.1192 63.8931 27.0593C63.8207 26.9995 63.7327 26.9617 63.6395 26.9504C63.5935 26.9483 63.5476 26.9564 63.5051 26.9741C63.4626 26.9918 63.4245 27.0187 63.3936 27.0528C63.3627 27.0869 63.3398 27.1274 63.3264 27.1715C63.313 27.2155 63.3094 27.262 63.3161 27.3075L63.2529 27.2988C62.6671 26.8219 63.1723 25.9932 62.4907 25.6655C62.2598 25.5544 60.8464 25.9257 60.5971 25.8604C60.5918 25.5977 60.5382 25.3382 60.4392 25.0949C60.424 25.0579 60.3989 25.0165 60.3597 25.0198C60.314 25.0252 60.302 25.0851 60.3009 25.1297C60.2917 25.3512 60.2426 25.5692 60.1561 25.7733C59.8106 25.7243 59.459 25.7428 59.1205 25.8277C58.8222 25.9061 58.5391 26.0411 58.2396 26.113C58.0916 26.1584 57.9359 26.1731 57.782 26.1562C57.6281 26.1394 57.4792 26.0913 57.3445 26.015C56.9645 25.7602 56.8981 25.1962 57.0876 24.7802C57.2247 24.5133 57.41 24.2741 57.6342 24.0746C57.8051 23.9091 57.9826 23.7501 58.1601 23.5911C58.3191 23.4485 58.4781 23.3058 58.6371 23.1632C58.8372 22.9748 59.0504 22.8009 59.2752 22.6427C59.634 22.4075 60.037 22.2481 60.4597 22.1743C60.8823 22.1006 61.3155 22.1139 61.7328 22.2137C62.2337 22.3334 62.9034 22.1647 63.3618 22.3988C63.6014 22.5218 64.1317 22.9933 64.3418 23.161C64.8797 23.5889 64.5157 23.2402 65.104 23.4877C66.5069 24.0776 65.8866 30.0317 64.8776 30.5067Z" fill="#2F2E41"/>
<path d="M25.7176 56.3214C37.8312 56.3214 47.6512 46.5014 47.6512 34.3877C47.6512 22.2741 37.8312 12.4541 25.7176 12.4541C13.604 12.4541 3.78394 22.2741 3.78394 34.3877C3.78394 46.5014 13.604 56.3214 25.7176 56.3214Z" fill="white"/>
<path d="M25.7176 56.54C13.5026 56.54 3.565 46.6024 3.565 34.3874C3.565 22.1725 13.5026 12.2349 25.7176 12.2349C37.9325 12.2349 47.8701 22.1725 47.8701 34.3874C47.8701 46.6024 37.9325 56.54 25.7176 56.54ZM25.7176 12.6727C13.7441 12.6727 4.00288 22.4139 4.00288 34.3874C4.00288 46.3609 13.7441 56.1021 25.7176 56.1021C37.6911 56.1021 47.4323 46.3609 47.4323 34.3874C47.4323 22.4139 37.6911 12.6727 25.7176 12.6727Z" fill="#6C63FF"/>
<path d="M22.7253 45.8032C22.3466 45.8032 21.973 45.715 21.6343 45.5455C21.2955 45.3761 21.0009 45.1301 20.7737 44.8271L14.7898 36.8485C14.5976 36.5922 14.4578 36.3005 14.3783 35.9901C14.2987 35.6797 14.2812 35.3567 14.3265 35.0396C14.3718 34.7224 14.4791 34.4173 14.6424 34.1416C14.8056 33.8659 15.0216 33.6251 15.2779 33.4328C15.5342 33.2406 15.8259 33.1007 16.1363 33.0212C16.4467 32.9417 16.7696 32.9241 17.0868 32.9695C17.404 33.0148 17.7091 33.1221 17.9848 33.2854C18.2605 33.4486 18.5013 33.6646 18.6936 33.9209L22.6084 39.1403L32.6631 24.0584C33.0222 23.5204 33.5803 23.147 34.2146 23.0204C34.8489 22.8937 35.5076 23.0241 36.0458 23.3829C36.584 23.7417 36.9577 24.2996 37.0847 24.9338C37.2118 25.568 37.0818 26.2267 36.7233 26.7652L24.7556 44.7167C24.5391 45.0413 24.248 45.3093 23.9065 45.4982C23.5651 45.6872 23.1833 45.7915 22.7932 45.8024C22.7706 45.8028 22.748 45.8032 22.7253 45.8032Z" fill="#6C63FF"/>
<path d="M48.3156 13.8244C48.3766 13.4051 47.9374 12.9941 47.3346 12.9064C46.7318 12.8186 46.1937 13.0875 46.1327 13.5068C46.0717 13.9262 46.5109 14.3372 47.1137 14.4249C47.7165 14.5126 48.2546 14.2438 48.3156 13.8244Z" fill="#E6E6E6"/>
<path d="M55.4926 13.1242C55.5536 12.7049 55.1144 12.2939 54.5116 12.2062C53.9088 12.1185 53.3706 12.3873 53.3096 12.8066C53.2486 13.226 53.6878 13.637 54.2906 13.7247C54.8934 13.8124 55.4316 13.5436 55.4926 13.1242Z" fill="#3F3D56"/>
<path d="M46.3502 8.01389C46.4113 7.59455 45.972 7.18351 45.3692 7.0958C44.7664 7.0081 44.2283 7.27694 44.1673 7.69628C44.1063 8.11562 44.5455 8.52667 45.1483 8.61437C45.7511 8.70208 46.2892 8.43323 46.3502 8.01389Z" fill="#FF6584"/>
<path d="M43.2317 5.63401C43.2346 5.24904 43.0199 4.93531 42.7521 4.93329C42.4843 4.93126 42.2648 5.2417 42.2619 5.62668C42.259 6.01165 42.4738 6.32537 42.7416 6.3274C43.0094 6.32942 43.2288 6.01898 43.2317 5.63401Z" fill="#E6E6E6"/>
<path d="M42.1742 1.2009C42.1771 0.815933 41.9624 0.502209 41.6945 0.500184C41.4267 0.498158 41.2073 0.808599 41.2044 1.19357C41.2015 1.57854 41.4162 1.89227 41.684 1.89429C41.9518 1.89632 42.1713 1.58588 42.1742 1.2009Z" fill="#3F3D56"/>
<path d="M50.3982 9.00266C50.4012 8.61769 50.1864 8.30397 49.9186 8.30194C49.6508 8.29992 49.4313 8.61036 49.4284 8.99533C49.4255 9.3803 49.6403 9.69402 49.9081 9.69605C50.1759 9.69807 50.3953 9.38763 50.3982 9.00266Z" fill="#E6E6E6"/>
<path d="M46.93 10.7346C46.9329 10.3496 46.7181 10.0359 46.4503 10.0339C46.1825 10.0319 45.9631 10.3423 45.9602 10.7273C45.9573 11.1122 46.172 11.426 46.4398 11.428C46.7076 11.43 46.9271 11.1196 46.93 10.7346Z" fill="#FF6584"/>
<path d="M51.7579 13.9348C51.7608 13.5498 51.5461 13.2361 51.2783 13.2341C51.0105 13.2321 50.791 13.5425 50.7881 13.9275C50.7852 14.3124 50.9999 14.6262 51.2677 14.6282C51.5355 14.6302 51.755 14.3198 51.7579 13.9348Z" fill="#3F3D56"/>
<path d="M7.15517 65.7859C7.21619 65.3665 6.77697 64.9555 6.17417 64.8678C5.57137 64.7801 5.03324 65.0489 4.97223 65.4683C4.91122 65.8876 5.35042 66.2986 5.95322 66.3863C6.55603 66.474 7.09416 66.2052 7.15517 65.7859Z" fill="#E6E6E6"/>
<path d="M14.3322 65.0857C14.3932 64.6663 13.954 64.2553 13.3512 64.1676C12.7484 64.0799 12.2102 64.3487 12.1492 64.7681C12.0882 65.1874 12.5274 65.5984 13.1302 65.6861C13.733 65.7739 14.2712 65.505 14.3322 65.0857Z" fill="#3F3D56"/>
<path d="M5.1899 59.9753C5.25091 59.556 4.81171 59.1449 4.2089 59.0572C3.6061 58.9695 3.06797 59.2384 3.00696 59.6577C2.94594 60.077 3.38515 60.4881 3.98796 60.5758C4.59076 60.6635 5.12889 60.3947 5.1899 59.9753Z" fill="#FF6584"/>
<path d="M2.07128 57.5954C2.07419 57.2105 1.85945 56.8967 1.59164 56.8947C1.32384 56.8927 1.10437 57.2031 1.10146 57.5881C1.09855 57.9731 1.3133 58.2868 1.5811 58.2888C1.84891 58.2908 2.06837 57.9804 2.07128 57.5954Z" fill="#E6E6E6"/>
<path d="M1.01366 53.1623C1.01657 52.7774 0.801828 52.4636 0.534022 52.4616C0.266215 52.4596 0.0467563 52.77 0.0438452 53.155C0.0409341 53.54 0.255673 53.8537 0.52348 53.8557C0.791286 53.8577 1.01075 53.5473 1.01366 53.1623Z" fill="#3F3D56"/>
<path d="M9.23778 60.9641C9.24069 60.5791 9.02594 60.2654 8.75814 60.2634C8.49033 60.2613 8.27088 60.5718 8.26797 60.9568C8.26506 61.3417 8.47979 61.6555 8.7476 61.6575C9.0154 61.6595 9.23487 61.3491 9.23778 60.9641Z" fill="#E6E6E6"/>
<path d="M5.76952 62.696C5.77244 62.311 5.55769 61.9973 5.28989 61.9953C5.02208 61.9933 4.80262 62.3037 4.7997 62.6887C4.79679 63.0737 5.01154 63.3874 5.27934 63.3894C5.54715 63.3914 5.76661 63.081 5.76952 62.696Z" fill="#FF6584"/>
<path d="M10.5975 65.8962C10.6004 65.5112 10.3856 65.1975 10.1178 65.1955C9.85001 65.1935 9.63056 65.5039 9.62765 65.8889C9.62474 66.2739 9.83947 66.5876 10.1073 66.5896C10.3751 66.5916 10.5945 66.2812 10.5975 65.8962Z" fill="#3F3D56"/>
</g>
<defs>
<clipPath id="clip0_503_1461">
<rect width="83.9124" height="100" fill="white" transform="translate(0.0438232 0.5)"/>
</clipPath>
</defs>
</svg>
