<svg width="20" height="21" viewBox="0 0 20 21" fill="none" xmlns="http://www.w3.org/2000/svg">
<mask id="mask0_735_2354" style="mask-type:alpha" maskUnits="userSpaceOnUse" x="0" y="0" width="20" height="21">
<rect y="0.5" width="20" height="20" fill="#D9D9D9"/>
</mask>
<g mask="url(#mask0_735_2354)">
<path d="M8.33341 13.4414L10.0001 11.7747L11.6667 13.4414L12.4407 12.6674L10.774 11.0008L12.4407 9.33409L11.6667 8.56013L10.0001 10.2268L8.33341 8.56013L7.55946 9.33409L9.22612 11.0008L7.55946 12.6674L8.33341 13.4414ZM6.75654 17.0841C6.3814 17.0841 6.06432 16.9546 5.80529 16.6955C5.54626 16.4365 5.41675 16.1194 5.41675 15.7443V6.00076H4.41675V4.91742H8.00008V4.01367H12.0001V4.91742H15.5834V6.00076H14.5834V15.7353C14.5834 16.1206 14.4539 16.4417 14.1949 16.6987C13.9358 16.9556 13.6188 17.0841 13.2436 17.0841H6.75654ZM13.5001 6.00076H6.50008V15.7443C6.50008 15.8085 6.52682 15.8672 6.58029 15.9205C6.63362 15.974 6.69237 16.0008 6.75654 16.0008H13.2436C13.3078 16.0008 13.3665 15.974 13.4199 15.9205C13.4733 15.8672 13.5001 15.8085 13.5001 15.7443V6.00076Z" fill="#717AEA"/>
</g>
</svg>
