<svg width="146" height="100" viewBox="0 0 146 100" fill="none" xmlns="http://www.w3.org/2000/svg">
<rect width="146" height="100" fill="white"/>
<g clip-path="url(#clip0_1162_2178)">
<path d="M36.6969 84.7297H17.3165C17.3165 84.7297 16.9236 78.9679 19.2479 78.9025C21.5722 78.837 21.3103 81.456 24.2239 77.8549C27.1376 74.2538 30.6731 74.4502 31.1314 76.5782C31.5897 78.7062 30.2476 80.4084 32.7028 79.8846C35.158 79.3608 38.6938 80.7357 36.6969 84.7297Z" fill="#E6E6E6"/>
<path d="M26.6796 84.731L26.6141 84.7284C26.7667 80.935 27.5611 78.498 28.2008 77.1209C28.8953 75.6262 29.5645 75.0211 29.5712 75.0151L29.6148 75.0641C29.6082 75.07 28.9468 75.669 28.2579 77.1537C27.6218 78.5244 26.8316 80.9518 26.6796 84.731Z" fill="white"/>
<path d="M33.6937 84.7388L33.6309 84.7205C34.1183 83.1128 34.9969 81.6511 36.1879 80.4663L36.2319 80.5148C35.0497 81.6913 34.1776 83.1426 33.6937 84.7388Z" fill="white"/>
<path d="M20.3691 84.7341L20.3041 84.7251C20.5154 83.3029 20.2919 81.85 19.6628 80.5571C19.4049 80.0148 19.0635 79.5164 18.651 79.08L18.6964 79.0327C19.1144 79.4744 19.4605 79.979 19.722 80.528C20.3568 81.8328 20.5823 83.2989 20.3691 84.7341Z" fill="white"/>
<path d="M39.327 84.8173H15.2263L15.2207 84.7357C15.207 84.5326 14.8994 79.742 16.4517 78.0326C16.6057 77.852 16.7958 77.7057 17.0097 77.603C17.2237 77.5004 17.4568 77.4436 17.694 77.4365C18.7058 77.4077 19.3416 77.7867 19.8545 78.0908C20.8212 78.6642 21.4597 79.0431 23.7816 76.1734C26.2968 73.0647 29.0108 72.3958 30.5708 72.7677C31.5789 73.008 32.2736 73.6872 32.4769 74.6313C32.6699 75.5252 32.6081 76.365 32.5588 77.04C32.506 77.7622 32.4644 78.3324 32.761 78.591C33.0091 78.8067 33.5027 78.8263 34.316 78.6528C35.9701 78.2999 38.2786 78.6018 39.4372 80.0989C40.0605 80.9043 40.5516 82.3681 39.3513 84.7689L39.327 84.8173ZM15.3907 84.6421H39.2186C40.113 82.8274 40.141 81.2944 39.2986 80.2061C38.2358 78.8328 36.0059 78.4714 34.3525 78.8241C33.4688 79.0127 32.9424 78.9815 32.6459 78.7232C32.2832 78.4073 32.3278 77.7983 32.384 77.0278C32.4325 76.3641 32.4928 75.538 32.3056 74.6686C32.117 73.7932 31.4698 73.1626 30.53 72.9386C29.0197 72.5783 26.381 73.2386 23.9177 76.284C21.5008 79.2713 20.7726 78.8395 19.7651 78.2413C19.2458 77.9334 18.6564 77.5842 17.6988 77.6114C17.4853 77.6182 17.2755 77.6697 17.083 77.7625C16.8905 77.8553 16.7196 77.9874 16.5812 78.1502C15.1866 79.6866 15.3566 83.9944 15.3908 84.6421H15.3907Z" fill="#2F2E41"/>
<path d="M118.076 84.9147H94.3371L94.3326 84.7817L93.1991 52.3643H119.213L118.076 84.9147ZM94.6034 84.639H117.809L118.928 52.6399H93.4844L94.6034 84.639Z" fill="#3F3D56"/>
<path d="M99.9998 58.3706H98.1942V80.7142H99.9998V58.3706Z" fill="#3F3D56"/>
<path d="M107.109 58.3706H105.303V80.7142H107.109V58.3706Z" fill="#3F3D56"/>
<path d="M114.218 58.3706H112.413V80.7142H114.218V58.3706Z" fill="#3F3D56"/>
<path d="M134.298 61.8836L134.181 61.8099L104.695 43.1762L107.253 39.1289L107.37 39.2025L136.856 57.8362L134.298 61.8836ZM105.076 43.0904L134.212 61.5032L136.475 57.9221L107.339 39.5092L105.076 43.0904Z" fill="#3F3D56"/>
<path d="M127.179 41.6742C126.322 41.1318 125.327 40.8467 124.313 40.8526C123.299 40.8586 122.307 41.1554 121.457 41.7078C120.606 42.2603 119.932 43.0452 119.514 43.9694C119.096 44.8936 118.952 45.9183 119.099 46.9219L120.505 47.8104C120.151 46.99 120.07 46.078 120.272 45.2079C120.475 44.3379 120.951 43.5555 121.63 42.9754C122.309 42.3953 123.156 42.0478 124.047 41.984C124.938 41.9201 125.826 42.1432 126.581 42.6205C127.336 43.0979 127.919 43.8044 128.243 44.6366C128.568 45.4689 128.617 46.3832 128.384 47.2456C128.152 48.108 127.649 48.8733 126.95 49.4294C126.251 49.9854 125.392 50.3031 124.499 50.3358L125.905 51.2243C126.875 50.9266 127.739 50.357 128.394 49.5831C129.05 48.8091 129.47 47.8633 129.604 46.858C129.738 45.8526 129.581 44.8298 129.152 43.9109C128.722 42.9921 128.038 42.2159 127.18 41.6742H127.179Z" fill="#3F3D56"/>
<path d="M135.297 84.7241H10V84.9998H135.297V84.7241Z" fill="#3F3D56"/>
<path d="M64.7279 82.8432H62.7204L61.7649 75.1001H64.7285L64.7279 82.8432Z" fill="#FEB8B8"/>
<path d="M58.8489 84.7071H65.158V82.2695H61.2527C60.6152 82.2695 60.0037 82.5228 59.5529 82.9736C59.1021 83.4244 58.8489 84.0358 58.8489 84.6733V84.7071Z" fill="#2F2E41"/>
<path d="M64.0223 70.845L65.4071 72.2986L71.6722 67.6496L69.6286 65.5044L64.0223 70.845Z" fill="#FEB8B8"/>
<path d="M66.8336 72.9642L64.1389 70.1367L62.3741 71.8186L66.7274 76.3865L66.7519 76.3632C66.9804 76.1453 67.1638 75.8846 67.2916 75.5959C67.4194 75.3073 67.4891 74.9962 67.4967 74.6806C67.5043 74.365 67.4496 74.0509 67.3359 73.7564C67.2221 73.4619 67.0514 73.1927 66.8336 72.9642Z" fill="#2F2E41"/>
<path d="M50.0494 49.6316C49.9224 49.4272 49.8417 49.1974 49.813 48.9584C49.7843 48.7195 49.8084 48.4771 49.8835 48.2485C49.9586 48.0198 50.0829 47.8104 50.2477 47.635C50.4124 47.4596 50.6137 47.3224 50.8372 47.2331L58.7188 27.146L61.791 28.9855L53.0356 48.2556C53.1607 48.6412 53.14 49.0592 52.9775 49.4305C52.815 49.8018 52.5219 50.1006 52.1537 50.2702C51.7856 50.4398 51.3681 50.4685 50.9802 50.3508C50.5924 50.2331 50.2612 49.9772 50.0494 49.6316Z" fill="#FEB8B8"/>
<path d="M79.9653 51.0713C79.7252 51.0541 79.4917 50.9845 79.2814 50.8673C79.0711 50.7501 78.889 50.5882 78.748 50.3931C78.607 50.1979 78.5106 49.9742 78.4654 49.7377C78.4203 49.5012 78.4275 49.2577 78.4867 49.0243L66.8593 30.8474L70.1524 29.4414L80.6057 47.8463C80.9917 47.9711 81.3185 48.2333 81.524 48.5831C81.7294 48.9329 81.7993 49.346 81.7203 49.7439C81.6413 50.1419 81.4189 50.4969 81.0954 50.7417C80.7719 50.9865 80.3697 51.104 79.9653 51.0718V51.0713Z" fill="#FEB8B8"/>
<path d="M58.7964 47.62L60.8545 78.2087L65.7729 77.7747L66.7855 55.2072L69.534 64.8993L75.4651 65.3332L73.1175 46.1733L58.7964 47.62Z" fill="#2F2E41"/>
<path d="M70.402 63.4526L69.5336 64.8993L63.4585 69.0943L67.7983 71.409C67.7983 71.409 76.1885 66.7798 75.4653 65.3332L70.402 63.4526Z" fill="#2F2E41"/>
<path d="M54.4894 35.2441L56.2015 30.4196C56.5824 29.3462 57.1724 28.3589 57.9374 27.515C58.7024 26.6711 59.6272 25.9873 60.6582 25.5031C62.9755 24.6494 65.4959 24.5114 67.8926 25.1071L68.5157 25.2618C70.1771 25.6645 71.7337 26.4163 73.0821 27.4672C74.1371 28.299 75.0863 29.3521 75.1708 30.4848C75.1712 30.4872 75.1719 30.4896 75.1728 30.4919C75.465 31.7727 75.6096 38.427 75.6096 38.427H73.032L73.4397 47.3958L73.4068 47.3309C73.4068 47.3309 58.5398 50.1444 58.5398 48.6978V39.4393L58.2351 36.087L54.4894 35.2441Z" fill="#CCCCCC"/>
<path d="M68.3663 23.8531C70.6416 23.8531 72.4862 22.0086 72.4862 19.7332C72.4862 17.4578 70.6416 15.6133 68.3663 15.6133C66.0909 15.6133 64.2463 17.4578 64.2463 19.7332C64.2463 22.0086 66.0909 23.8531 68.3663 23.8531Z" fill="#FEB8B8"/>
<path d="M68.9833 17.8855L72.1823 18.0137C72.5848 18.0125 73.0243 17.9983 73.3308 17.738C73.7926 17.3453 73.7153 16.6043 73.468 16.0507C72.7788 14.5094 71.2414 13.9572 69.5533 14.0026C67.8652 14.0479 66.0962 14.6201 65.1872 16.0426C64.2781 17.4651 64.0325 19.2615 64.3749 20.9145C64.7707 20.0739 65.3801 19.3519 66.1422 18.8205C66.9043 18.2891 67.7924 17.9669 68.718 17.8861L68.9833 17.8855Z" fill="#2F2E41"/>
<path d="M87.9799 58.1842L76.401 50.0691C76.2934 49.9934 76.2202 49.8782 76.1975 49.7486C76.1747 49.619 76.2042 49.4857 76.2794 49.3779L85.3675 36.4108C85.4432 36.3032 85.5584 36.23 85.688 36.2072C85.8175 36.1844 85.9509 36.2139 86.0587 36.2892L97.6376 44.4043C97.7452 44.48 97.8183 44.5953 97.8411 44.7248C97.8639 44.8544 97.8344 44.9877 97.7592 45.0955L88.6714 58.0623C88.5957 58.17 88.4804 58.2433 88.3508 58.2661C88.2212 58.289 88.0878 58.2595 87.9799 58.1842Z" fill="#6C63FF"/>
<path d="M90.5837 49.3789L83.7895 44.6171C83.7109 44.562 83.6439 44.492 83.5924 44.411C83.5409 44.3301 83.5058 44.2398 83.4892 44.1453C83.4726 44.0508 83.4747 43.9539 83.4955 43.8603C83.5163 43.7666 83.5554 43.678 83.6105 43.5994C83.6655 43.5208 83.7355 43.4539 83.8165 43.4023C83.8974 43.3508 83.9877 43.3158 84.0822 43.2991C84.1767 43.2825 84.2736 43.2847 84.3672 43.3055C84.4609 43.3263 84.5496 43.3653 84.6281 43.4204L91.4224 48.1822C91.5811 48.2934 91.6891 48.4631 91.7227 48.654C91.7562 48.8448 91.7126 49.0412 91.6014 49.1999C91.4902 49.3586 91.3205 49.4666 91.1296 49.5001C90.9388 49.5337 90.7424 49.4901 90.5837 49.3789Z" fill="white"/>
<path d="M89.0244 51.6038L82.2302 46.842C82.1515 46.787 82.0844 46.717 82.0328 46.636C81.9812 46.5551 81.9461 46.4648 81.9294 46.3702C81.9128 46.2757 81.9149 46.1788 81.9357 46.085C81.9565 45.9913 81.9956 45.9026 82.0507 45.824C82.1058 45.7454 82.1758 45.6784 82.2568 45.6269C82.3378 45.5753 82.4282 45.5403 82.5227 45.5237C82.6173 45.5071 82.7142 45.5093 82.8079 45.5302C82.9016 45.5511 82.9903 45.5902 83.0688 45.6454L89.8631 50.4072C90.0216 50.5185 90.1294 50.6881 90.1629 50.8789C90.1964 51.0696 90.1527 51.2659 90.0416 51.4245C89.9304 51.5831 89.7609 51.6911 89.5701 51.7247C89.3794 51.7583 89.1831 51.7148 89.0244 51.6038Z" fill="white"/>
<path d="M87.4484 53.8525L80.6541 49.0907C80.5755 49.0356 80.5085 48.9656 80.457 48.8847C80.4055 48.8037 80.3704 48.7134 80.3538 48.6189C80.3372 48.5244 80.3394 48.4276 80.3602 48.3339C80.381 48.2402 80.42 48.1516 80.4751 48.073C80.5302 47.9945 80.6002 47.9275 80.6811 47.876C80.7621 47.8245 80.8524 47.7894 80.9469 47.7728C81.0414 47.7561 81.1382 47.7583 81.2319 47.7791C81.3255 47.7999 81.4142 47.839 81.4928 47.894L88.287 52.6558C88.4457 52.7671 88.5537 52.9367 88.5873 53.1276C88.6209 53.3184 88.5772 53.5148 88.466 53.6735C88.3548 53.8322 88.1851 53.9402 87.9943 53.9738C87.8034 54.0073 87.607 53.9637 87.4484 53.8525Z" fill="white"/>
<path d="M90.5647 44.9774L87.933 43.133C87.8544 43.078 87.7873 43.008 87.7357 42.9271C87.6841 42.8461 87.649 42.7558 87.6323 42.6612C87.6156 42.5667 87.6178 42.4698 87.6386 42.3761C87.6594 42.2823 87.6984 42.1936 87.7535 42.115C87.8086 42.0364 87.8787 41.9694 87.9597 41.9179C88.0407 41.8664 88.1311 41.8313 88.2256 41.8147C88.3202 41.7981 88.4171 41.8003 88.5108 41.8212C88.6045 41.8421 88.6931 41.8812 88.7717 41.9364L91.4033 43.7808C91.562 43.892 91.67 44.0617 91.7036 44.2525C91.7372 44.4434 91.6935 44.6398 91.5823 44.7984C91.4711 44.9571 91.3014 45.0651 91.1106 45.0987C90.9197 45.1323 90.7233 45.0886 90.5647 44.9774Z" fill="white"/>
</g>
<defs>
<clipPath id="clip0_1162_2178">
<rect width="126.856" height="71" fill="white" transform="translate(10 14)"/>
</clipPath>
</defs>
</svg>
