<svg width="162" height="101" viewBox="0 0 162 101" fill="none" xmlns="http://www.w3.org/2000/svg">
<g clip-path="url(#clip0_521_1032)">
<path d="M42.7748 61.4442C59.6041 61.4442 73.2469 47.8014 73.2469 30.9721C73.2469 14.1428 59.6041 0.5 42.7748 0.5C25.9456 0.5 12.3027 14.1428 12.3027 30.9721C12.3027 47.8014 25.9456 61.4442 42.7748 61.4442Z" fill="#F2F2F2"/>
<path d="M0.913086 7.81689C0.913086 18.9039 7.86846 27.8753 16.464 27.8753L0.913086 7.81689Z" fill="#2F2E41"/>
<path d="M16.4648 27.8751C16.4648 16.6635 24.2266 7.59131 33.8187 7.59131L16.4648 27.8751Z" fill="#6C63FF"/>
<path d="M6.54785 8.82178C6.54785 19.3532 10.9832 27.8751 16.4644 27.8751L6.54785 8.82178Z" fill="#6C63FF"/>
<path d="M16.4648 27.8752C16.4648 13.5493 25.4363 1.95703 36.5232 1.95703L16.4648 27.8752Z" fill="#2F2E41"/>
<path d="M13.1924 28.0164C13.1924 28.0164 15.3978 27.9485 16.0624 27.4752C16.727 27.0019 19.4548 26.4368 19.6197 27.1958C19.7846 27.9549 22.934 30.9709 20.4441 30.991C17.9543 31.0111 14.6588 30.6032 13.9954 30.1991C13.3321 29.795 13.1924 28.0164 13.1924 28.0164Z" fill="#A8A8A8"/>
<path opacity="0.2" d="M20.4885 30.727C17.9987 30.7471 14.7032 30.3391 14.0399 29.9351C13.5347 29.6273 13.3334 28.5231 13.266 28.0137C13.2194 28.0157 13.1924 28.0165 13.1924 28.0165C13.1924 28.0165 13.3321 29.7952 13.9954 30.1993C14.6588 30.6034 17.9543 31.0113 20.4441 30.9912C21.1628 30.9854 21.4111 30.7297 21.3975 30.3509C21.2976 30.5798 21.0235 30.7227 20.4885 30.727Z" fill="black"/>
<path d="M29.3267 64.8693C44.1017 64.8693 56.0792 63.2398 56.0792 61.2298C56.0792 59.2198 44.1017 57.5903 29.3267 57.5903C14.5517 57.5903 2.57422 59.2198 2.57422 61.2298C2.57422 63.2398 14.5517 64.8693 29.3267 64.8693Z" fill="#3F3D56"/>
<path opacity="0.1" d="M29.3269 64.2855C41.7315 64.2855 51.7875 62.9175 51.7875 61.2299C51.7875 59.5424 41.7315 58.1743 29.3269 58.1743C16.9222 58.1743 6.86621 59.5424 6.86621 61.2299C6.86621 62.9175 16.9222 64.2855 29.3269 64.2855Z" fill="black"/>
<path d="M120.6 100.5C142.96 100.5 161.086 98.0342 161.086 94.9922C161.086 91.9503 142.96 89.4844 120.6 89.4844C98.2397 89.4844 80.1133 91.9503 80.1133 94.9922C80.1133 98.0342 98.2397 100.5 120.6 100.5Z" fill="#3F3D56"/>
<path d="M45.3498 96.1548C58.7816 96.1548 69.6702 94.6735 69.6702 92.8462C69.6702 91.0189 58.7816 89.5376 45.3498 89.5376C31.9179 89.5376 21.0293 91.0189 21.0293 92.8462C21.0293 94.6735 31.9179 96.1548 45.3498 96.1548Z" fill="#852221"/>
<path d="M67.0947 90.0567C79.9703 93.3471 104.72 85.7648 107.438 77.1812" stroke="#2F2E41" stroke-width="0.286123" stroke-miterlimit="10"/>
<path d="M45.207 37.5532C45.207 37.5532 63.805 32.403 64.9495 48.9982C66.094 65.5933 49.6419 70.3143 62.5175 73.6047" stroke="#2F2E41" stroke-width="0.286123" stroke-miterlimit="10"/>
<path d="M27.2383 77.3647C27.2383 77.3647 32.828 75.8168 33.172 80.8046C33.516 85.7923 28.5712 87.2113 32.441 88.2002" stroke="#2F2E41" stroke-width="0.286123" stroke-miterlimit="10"/>
<path d="M112.317 81.078L111.19 88.2733C111.19 88.2733 105.641 91.2208 109.542 91.3074C113.444 91.3941 131.822 91.3074 131.822 91.3074C131.822 91.3074 135.376 91.3074 129.741 88.1866L128.614 80.6445L112.317 81.078Z" fill="#2F2E41"/>
<path opacity="0.1" d="M108.757 91.2294C109.643 90.441 111.189 89.6196 111.189 89.6196L112.316 82.4243L128.614 82.4397L129.741 89.5329C131.055 90.2607 131.869 90.8186 132.345 91.2466C133.069 91.0814 133.86 90.4678 129.741 88.1866L128.614 80.6445L112.316 81.078L111.189 88.2733C111.189 88.2733 106.527 90.7503 108.757 91.2294Z" fill="black"/>
<path d="M154.51 30.9277H86.2467C84.8209 30.9277 83.665 32.0836 83.665 33.5094V79.4934C83.665 80.9192 84.8209 82.0751 86.2467 82.0751H154.51C155.936 82.0751 157.092 80.9192 157.092 79.4934V33.5094C157.092 32.0836 155.936 30.9277 154.51 30.9277Z" fill="#2F2E41"/>
<path d="M154.621 33.6582H86.1357V71.9754H154.621V33.6582Z" fill="#3F3D56"/>
<path d="M120.378 32.8781C120.617 32.8781 120.811 32.6841 120.811 32.4447C120.811 32.2053 120.617 32.0112 120.378 32.0112C120.138 32.0112 119.944 32.2053 119.944 32.4447C119.944 32.6841 120.138 32.8781 120.378 32.8781Z" fill="#F2F2F2"/>
<path d="M157.092 75.0098V79.4934C157.092 79.8324 157.025 80.1681 156.895 80.4814C156.766 80.7946 156.575 81.0792 156.336 81.319C156.096 81.5587 155.811 81.7489 155.498 81.8786C155.185 82.0083 154.849 82.0751 154.51 82.075H86.2467C85.9076 82.0751 85.5719 82.0083 85.2587 81.8786C84.9454 81.7489 84.6608 81.5587 84.4211 81.319C84.1814 81.0792 83.9912 80.7946 83.8615 80.4814C83.7317 80.1681 83.665 79.8324 83.665 79.4934V75.0098H157.092Z" fill="#2F2E41"/>
<path d="M139.537 95.9891V96.856H92.8975V96.1624L92.9617 95.9891L94.1112 92.8682H138.583L139.537 95.9891Z" fill="#2F2E41"/>
<path d="M157.485 95.1402C157.4 95.5035 157.08 95.8867 156.355 96.249C153.754 97.5494 148.466 95.9023 148.466 95.9023C148.466 95.9023 144.392 95.2087 144.392 93.3882C144.506 93.3099 144.625 93.239 144.749 93.1759C145.842 92.5974 149.468 91.17 155.896 93.2363C156.369 93.3849 156.792 93.6621 157.118 94.037C157.378 94.342 157.582 94.7287 157.485 95.1402Z" fill="#2F2E41"/>
<path opacity="0.1" d="M157.486 95.1402C154.302 96.36 151.465 96.451 148.553 94.4285C147.084 93.409 145.75 93.1568 144.749 93.1758C145.842 92.5974 149.468 91.17 155.896 93.2363C156.37 93.3849 156.793 93.6621 157.118 94.037C157.378 94.342 157.583 94.7287 157.486 95.1402Z" fill="black"/>
<path d="M153.494 94.4284C154.117 94.4284 154.621 94.2731 154.621 94.0816C154.621 93.8901 154.117 93.7349 153.494 93.7349C152.872 93.7349 152.367 93.8901 152.367 94.0816C152.367 94.2731 152.872 94.4284 153.494 94.4284Z" fill="#F2F2F2"/>
<path d="M120.379 80.2112C121.288 80.2112 122.026 79.4738 122.026 78.5641C122.026 77.6544 121.288 76.917 120.379 76.917C119.469 76.917 118.731 77.6544 118.731 78.5641C118.731 79.4738 119.469 80.2112 120.379 80.2112Z" fill="#F2F2F2"/>
<path opacity="0.1" d="M139.537 95.9888V96.8557H92.8975V96.1622L92.9617 95.9888H139.537Z" fill="black"/>
<path d="M46.208 23.2471H16.4512V57.868H46.208V23.2471Z" fill="#2F2E41"/>
<path d="M49.2126 19.8135H13.4473V32.1168H49.2126V19.8135Z" fill="#3F3D56"/>
<path d="M49.2126 34.4058H13.4473V46.7091H49.2126V34.4058Z" fill="#3F3D56"/>
<path d="M49.2126 48.998H13.4473V61.3013H49.2126V48.998Z" fill="#3F3D56"/>
<path opacity="0.4" d="M42.0595 21.9595H39.7705V24.2485H42.0595V21.9595Z" fill="#6C63FF"/>
<path opacity="0.8" d="M45.3495 21.9595H43.0605V24.2485H45.3495V21.9595Z" fill="#6C63FF"/>
<path d="M48.6405 21.9595H46.3516V24.2485H48.6405V21.9595Z" fill="#6C63FF"/>
<path opacity="0.4" d="M42.0595 36.4087H39.7705V38.6977H42.0595V36.4087Z" fill="#6C63FF"/>
<path opacity="0.8" d="M45.3495 36.4087H43.0605V38.6977H45.3495V36.4087Z" fill="#6C63FF"/>
<path d="M48.6405 36.4087H46.3516V38.6977H48.6405V36.4087Z" fill="#6C63FF"/>
<path opacity="0.4" d="M42.0595 50.8579H39.7705V53.1469H42.0595V50.8579Z" fill="#6C63FF"/>
<path opacity="0.8" d="M45.3495 50.8579H43.0605V53.1469H45.3495V50.8579Z" fill="#6C63FF"/>
<path d="M48.6405 50.8579H46.3516V53.1469H48.6405V50.8579Z" fill="#6C63FF"/>
<path d="M46.2081 88.7692C52.45 88.7692 57.51 83.7092 57.51 77.4674C57.51 71.2255 52.45 66.1655 46.2081 66.1655C39.9663 66.1655 34.9062 71.2255 34.9062 77.4674C34.9062 83.7092 39.9663 88.7692 46.2081 88.7692Z" fill="#B3261E"/>
<path d="M44.4911 86.3369H41.0576V92.4886H44.4911V86.3369Z" fill="#B3261E"/>
<path d="M51.3583 86.3369H47.9248V92.4886H51.3583V86.3369Z" fill="#B3261E"/>
<path d="M43.9188 93.6332C45.4991 93.6332 46.7801 93.1528 46.7801 92.5603C46.7801 91.9677 45.4991 91.4873 43.9188 91.4873C42.3386 91.4873 41.0576 91.9677 41.0576 92.5603C41.0576 93.1528 42.3386 93.6332 43.9188 93.6332Z" fill="#B3261E"/>
<path d="M50.786 93.4902C52.3662 93.4902 53.6473 93.0098 53.6473 92.4172C53.6473 91.8246 52.3662 91.3442 50.786 91.3442C49.2058 91.3442 47.9248 91.8246 47.9248 92.4172C47.9248 93.0098 49.2058 93.4902 50.786 93.4902Z" fill="#B3261E"/>
<path d="M46.4945 78.4685C48.6278 78.4685 50.3572 76.7391 50.3572 74.6058C50.3572 72.4725 48.6278 70.7432 46.4945 70.7432C44.3612 70.7432 42.6318 72.4725 42.6318 74.6058C42.6318 76.7391 44.3612 78.4685 46.4945 78.4685Z" fill="white"/>
<path d="M46.4946 75.8935C47.2057 75.8935 47.7821 75.317 47.7821 74.6059C47.7821 73.8948 47.2057 73.3184 46.4946 73.3184C45.7835 73.3184 45.207 73.8948 45.207 74.6059C45.207 75.317 45.7835 75.8935 46.4946 75.8935Z" fill="#3F3D56"/>
<path d="M35.2452 66.9569C34.3326 62.8699 37.2498 58.7403 41.7608 57.733C46.2718 56.7257 50.6685 59.2223 51.5811 63.3092C52.4937 67.3961 49.5041 68.9034 44.993 69.9107C40.482 70.918 36.1578 71.0438 35.2452 66.9569Z" fill="#6C63FF"/>
<path d="M56.808 75.2131C59.6771 73.9851 61.6905 72.2594 61.305 71.3587C60.9195 70.4579 58.2811 70.7233 55.4119 71.9513C52.5427 73.1793 50.5293 74.905 50.9148 75.8057C51.3003 76.7064 53.9388 76.4411 56.808 75.2131Z" fill="#B3261E"/>
<path d="M35.6351 82.7956C38.5043 81.5676 40.5177 79.8419 40.1322 78.9412C39.7466 78.0405 37.1082 78.3058 34.239 79.5338C31.3699 80.7618 29.3565 82.4875 29.742 83.3882C30.1275 84.2889 32.7659 84.0236 35.6351 82.7956Z" fill="#B3261E"/>
<path d="M52.7891 80.7574C52.7891 81.8636 49.941 84.0478 46.7806 84.0478C43.6201 84.0478 40.6289 82.0066 40.6289 80.9005C40.6289 79.7943 43.6201 80.0421 46.7806 80.0421C49.941 80.0421 52.7891 79.6513 52.7891 80.7574Z" fill="white"/>
</g>
<defs>
<clipPath id="clip0_521_1032">
<rect width="160.173" height="100" fill="white" transform="translate(0.913086 0.5)"/>
</clipPath>
</defs>
</svg>
