<svg width="9" height="5" viewBox="0 0 9 5" fill="none" xmlns="http://www.w3.org/2000/svg">
<path d="M3.9752 4.475L0.350195 0.85C0.300195 0.8 0.262695 0.745833 0.237695 0.6875C0.212695 0.629167 0.200195 0.566667 0.200195 0.5C0.200195 0.366667 0.246029 0.25 0.337695 0.15C0.429362 0.05 0.550195 0 0.700195 0H8.3002C8.4502 0 8.57103 0.05 8.6627 0.15C8.75436 0.25 8.8002 0.366667 8.8002 0.5C8.8002 0.533333 8.7502 0.65 8.6502 0.85L5.0252 4.475C4.94186 4.55833 4.85853 4.61667 4.7752 4.65C4.69186 4.68333 4.6002 4.7 4.5002 4.7C4.4002 4.7 4.30853 4.68333 4.2252 4.65C4.14186 4.61667 4.05853 4.55833 3.9752 4.475Z" fill="#1C1B1F"/>
</svg>
