<svg width="182" height="160" viewBox="0 0 182 160" fill="none" xmlns="http://www.w3.org/2000/svg">
<g clip-path="url(#clip0_455_570)">
<path d="M140.964 102.499C140.81 102.234 140.716 101.938 140.689 101.633C140.662 101.328 140.702 101.02 140.807 100.732C140.912 100.444 141.08 100.183 141.297 99.9663C141.515 99.7496 141.778 99.5831 142.067 99.4785L141.959 92.0317L145.235 94.1153L144.836 100.867C144.98 101.363 144.937 101.894 144.714 102.36C144.492 102.825 144.105 103.194 143.628 103.395C143.151 103.596 142.616 103.616 142.125 103.451C141.634 103.285 141.221 102.947 140.964 102.499Z" fill="#A0616A"/>
<path d="M137.015 62.0689C136.044 62.2397 135.162 62.7404 134.52 63.4856C133.878 64.2308 133.515 65.1745 133.493 66.156C133.446 68.3354 134.177 69.148 135.209 69.4417C137.118 69.9845 140.158 80.9631 140.158 80.9631C140.158 80.9631 140.48 91.2028 141.001 90.6971C141.521 90.1915 140.932 91.3714 141.09 91.7314C141.249 92.0915 140.341 92.6307 141.204 93.0396C142.067 93.4486 141.521 96.7057 141.521 96.7057L145.339 96.4342C145.339 96.4342 144.705 93.7809 145.567 93.6147C146.43 93.4486 146.038 92.6935 145.688 92.121C145.339 91.5486 146.306 90.7328 145.823 90.4621C145.339 90.1915 146.702 79.606 146.702 79.606L141.372 63.9939C140.92 63.2777 140.265 62.712 139.489 62.369C138.712 62.0261 137.851 61.9216 137.015 62.0689Z" fill="#6C63FF"/>
<path d="M125.434 62.6832L128.18 57.8921H131.89L134.673 62.9547L125.434 62.6832Z" fill="#6C63FF"/>
<path d="M118.047 19.5982C115.853 12.2821 109.653 7.50603 102.163 6.45826C102.08 6.4467 102.002 6.46197 101.92 6.45671C101.814 6.42444 101.706 6.39963 101.596 6.38247C91.2949 5.05725 80.0496 7.43069 71.0994 13.0049C62.5202 18.348 52.6625 21.3628 42.5427 21.2958C42.2284 21.2937 41.9129 21.3005 41.5961 21.3162C33.8081 21.703 26.935 27.3459 24.8296 34.7681C24.5533 35.7419 25.0348 36.612 25.8091 37.1638C27.1696 38.1338 28.0989 38.8135 29.7728 39.1665C32.7596 39.7963 35.7566 40.3755 38.7638 40.904V28.9807C38.7651 27.8519 39.2162 26.7697 40.0181 25.9715C40.8199 25.1733 41.9071 24.7243 43.0411 24.723H101.796C102.93 24.7243 104.017 25.1733 104.819 25.9715C105.621 26.7697 106.072 27.8519 106.073 28.9807V43.8295C106.879 43.5787 107.665 43.2704 108.427 42.9072C111.261 41.5137 113.683 39.4104 115.453 36.8037C118.855 31.8909 119.753 25.2882 118.047 19.5982Z" fill="#F2F2F2"/>
<path d="M93.3088 89.377H41.3692C40.1707 89.3757 39.0216 88.9011 38.1741 88.0575C37.3266 87.2139 36.8498 86.0701 36.8484 84.8771V64.8161C30.5222 62.8884 23.8594 62.3071 17.2927 63.1099C17.1832 63.1271 17.0749 63.1519 16.9689 63.1842C16.8868 63.1894 16.8086 63.1742 16.7262 63.1857C9.23552 64.2335 3.03645 69.0096 0.842194 76.3257C-0.864495 82.0156 0.0339357 88.6183 3.43553 93.5312C5.2063 96.1378 7.62778 98.2412 10.4621 99.6347C14.358 101.503 18.4586 101.643 22.7108 101.775C35.4777 102.172 48.2569 101.691 60.9573 100.336C67.2076 99.6687 73.4319 98.7967 79.6302 97.7199C82.8027 97.1673 85.9647 96.5586 89.1162 95.894C90.7901 95.541 91.7195 94.8612 93.0799 93.8913C93.8542 93.3394 94.3357 92.4693 94.0594 91.4955C93.8541 90.7744 93.6034 90.0668 93.3088 89.377Z" fill="#F2F2F2"/>
<path d="M97.9055 83.4257H46.9316C45.9478 83.4246 45.0046 83.0351 44.3089 82.3426C43.6132 81.6501 43.2218 80.7113 43.2207 79.7319V32.5795C43.2218 31.6002 43.6132 30.6614 44.3089 29.9689C45.0046 29.2764 45.9478 28.8869 46.9316 28.8857H97.9055C98.8893 28.8869 99.8326 29.2764 100.528 29.9689C101.224 30.6614 101.615 31.6002 101.616 32.5795V79.7319C101.615 80.7112 101.224 81.6501 100.528 82.3426C99.8326 83.0351 98.8894 83.4246 97.9055 83.4257Z" fill="#E6E6E6"/>
<path d="M87.1772 80.9341H49.4355C48.4517 80.933 47.5085 80.5434 46.8128 79.851C46.1171 79.1585 45.7258 78.2196 45.7246 77.2403V35.0729C45.7258 34.0936 46.1171 33.1548 46.8128 32.4623C47.5085 31.7698 48.4517 31.3803 49.4355 31.3792H95.4027C96.3865 31.3803 97.3298 31.7698 98.0254 32.4623C98.7211 33.1548 99.1125 34.0936 99.1136 35.0729V69.0528C99.11 72.2029 97.8513 75.2229 95.6136 77.4503C93.3758 79.6777 90.3419 80.9306 87.1772 80.9341Z" fill="white"/>
<path d="M72.4187 72.7135C81.6052 72.7135 89.0523 65.3007 89.0523 56.1567C89.0523 47.0126 81.6052 39.5999 72.4187 39.5999C63.2323 39.5999 55.7852 47.0126 55.7852 56.1567C55.7852 65.3007 63.2323 72.7135 72.4187 72.7135Z" fill="#6C63FF"/>
<path d="M79.4262 55.3236L73.8754 48.6048C73.7248 48.4226 73.5363 48.2751 73.3227 48.1725C73.1092 48.07 72.8758 48.0149 72.6388 48.011C72.4018 48.0071 72.1667 48.0545 71.9499 48.1499C71.7331 48.2454 71.5397 48.3866 71.3831 48.5638L65.4472 55.2825C65.1613 55.607 65.0164 56.0311 65.0444 56.4618C65.0725 56.8925 65.2711 57.2945 65.5967 57.5795C65.9223 57.8646 66.3483 58.0093 66.781 57.9819C67.2137 57.9545 67.6178 57.7573 67.9045 57.4335L70.9757 53.9573V62.674C70.9757 63.1059 71.1481 63.5202 71.4549 63.8256C71.7617 64.131 72.1779 64.3026 72.6118 64.3026C73.0457 64.3026 73.4619 64.131 73.7687 63.8256C74.0755 63.5202 74.2479 63.1059 74.2479 62.674V54.1837L76.8988 57.3924C77.1744 57.726 77.5719 57.937 78.0037 57.9789C78.4356 58.0208 78.8665 57.8902 79.2017 57.6159C79.5368 57.3415 79.7488 56.9459 79.7909 56.516C79.833 56.0862 79.7018 55.6572 79.4262 55.3236Z" fill="white"/>
<path d="M144.099 156.97L141.632 156.97L140.458 147.496L144.1 147.496L144.099 156.97Z" fill="#A0616A"/>
<path d="M144.186 159.533L136.598 159.532V159.437C136.598 158.657 136.909 157.909 137.463 157.358C138.017 156.807 138.768 156.497 139.551 156.497L140.938 155.45L143.524 156.497L144.186 156.497L144.186 159.533Z" fill="#2F2E41"/>
<path d="M125.557 156.97L123.09 156.97L121.916 147.496L125.558 147.496L125.557 156.97Z" fill="#A0616A"/>
<path d="M125.644 159.533L118.056 159.532V159.437C118.056 158.657 118.367 157.909 118.921 157.358C119.475 156.807 120.226 156.497 121.009 156.497L122.396 155.45L124.982 156.497L125.644 156.497L125.644 159.533Z" fill="#2F2E41"/>
<path d="M144.887 149.129C145.787 148.543 145.265 148.581 145.265 148.581C145.265 148.581 143.252 132.334 141.72 127.41L139.948 103.434C139.948 103.434 139.835 103.912 139.948 102.749C140.061 101.587 140.879 102.401 140.061 101.587C139.242 100.773 138.697 100.358 139.242 99.751C139.788 99.1442 141.292 97.9166 140.404 97.1733C139.515 96.43 137.767 91.5824 137.767 91.5824L120.724 91.7181L121.406 91.5824C121.406 91.5824 119.278 90.7967 120.253 91.8199C121.227 92.843 119.707 95.3484 119.162 97.7912C118.71 99.8144 117.369 100.351 119.162 100.777C120.955 101.202 119.332 102.408 119.332 102.408C119.332 102.408 116.634 115.196 118.679 123.61C118.679 123.61 120.09 144.421 120.804 146.211C121.518 148 121.791 146.915 121.518 148C121.246 149.086 120.7 147.186 121.246 149.086C121.543 150.078 121.779 151.088 121.951 152.11L125.649 151.838C125.649 151.838 126.508 149.144 125.649 148.436C124.79 147.729 125.383 149.793 126.314 148.218C127.245 146.643 126.154 147.186 125.881 145.015C125.608 142.843 128.11 132.728 126.314 126.522L129.633 109.106L134.903 127.139C134.903 127.139 137.699 149.162 138.607 149.938C139.515 150.715 139.148 148.83 139.515 150.715C139.886 152.619 140.728 152.114 140.704 152.347C140.45 154.837 144.887 152.381 144.887 152.381C144.843 151.749 144.843 151.114 144.887 150.481C144.969 149.9 143.986 149.714 144.887 149.129Z" fill="#2F2E41"/>
<path d="M122.434 97.2483C121.343 97.2483 118.344 95.7779 118.889 95.1559C119.434 94.534 119.434 92.4695 119.434 91.8732C119.434 91.2769 121.888 69.2917 121.888 69.2917L121.702 63.9087C121.691 63.586 121.745 63.2644 121.861 62.9631C121.978 62.6617 122.154 62.3867 122.379 62.1545C122.604 61.9223 122.874 61.7376 123.173 61.6115C123.472 61.4854 123.793 61.4204 124.117 61.4204L126.524 60.6061L133.341 60.3347L136.74 61.4204C137.078 61.4204 137.409 61.5066 137.704 61.6707C137.998 61.8347 138.245 62.0712 138.421 62.3576C138.597 62.6439 138.696 62.9704 138.71 63.3058C138.723 63.6413 138.649 63.9745 138.496 64.2735C140.3 67.2049 141.205 70.5965 141.101 74.0324C141.022 76.6032 139.714 79.7426 139.399 82.6469C139.371 82.9018 139.351 83.1549 139.34 83.4057C139.337 83.4756 138.779 83.8241 139.332 83.6149C139.885 83.4057 139.036 84.1441 139.324 84.5891C139.613 85.0342 140.172 84.7615 139.347 85.305C138.522 85.8485 140.338 91.0983 140.158 91.2769C139.613 91.8198 138.522 92.0912 139.34 92.9055C140.158 93.7197 140.976 93.1769 139.885 94.2626C138.795 95.3483 135.527 97.2482 135.527 97.2482L122.434 97.2483Z" fill="#3F3D56"/>
<path d="M129.723 57.183C132.965 57.183 135.592 54.5675 135.592 51.3412C135.592 48.1148 132.965 45.4993 129.723 45.4993C126.482 45.4993 123.854 48.1148 123.854 51.3412C123.854 54.5675 126.482 57.183 129.723 57.183Z" fill="#A0616A"/>
<path d="M93.9776 69.4665C94.2592 69.3426 94.5646 69.2817 94.8723 69.288C95.18 69.2944 95.4826 69.3678 95.7588 69.5031C96.0349 69.6384 96.2779 69.8323 96.4707 70.0712C96.6634 70.3101 96.8011 70.5882 96.8742 70.8858L104.323 71.5872L101.886 74.6031L95.1864 73.4747C94.676 73.5637 94.1504 73.4633 93.7094 73.1924C93.2684 72.9215 92.9425 72.499 92.7935 72.005C92.6445 71.5109 92.6827 70.9796 92.901 70.5118C93.1192 70.0439 93.5023 69.672 93.9776 69.4665Z" fill="#A0616A"/>
<path d="M129.296 65.1177C129.124 64.151 128.621 63.2733 127.873 62.6342C127.124 61.9951 126.176 61.6341 125.19 61.6125C123.001 61.5653 122.184 62.2926 121.889 63.3204C121.344 65.2203 112.564 71.899 112.564 71.899L105.024 71.0868C104.571 70.9402 104.786 70.5292 103.081 70.8775C102.241 70.3301 101.699 70.4228 101.231 70.6782L98.4385 70.3774L98.7112 74.7201C98.7112 74.7201 101.701 74.0122 102.256 75.263C102.811 76.5137 102.684 76.6933 103.892 75.8058C105.1 74.9183 104.983 75.8058 104.983 75.8058L113.709 77.9772L127.362 69.4543C128.082 69.0052 128.65 68.3526 128.995 67.58C129.339 66.8075 129.444 65.9501 129.296 65.1177Z" fill="#6C63FF"/>
<path d="M132.003 56.5565L132.387 56.6787C131.185 56.7791 129.041 57.4468 129.251 57.0777C129.461 56.7085 128.668 55.3161 129.055 55.1397C129.458 54.9991 129.816 54.7569 130.097 54.4367C130.342 54.0947 130.337 53.5302 129.968 53.3212C129.611 53.1149 129.17 53.3374 128.815 53.5464C128.458 53.7527 127.798 50.7182 127.967 49.7709C126.972 49.2281 125.766 50.2677 124.648 50.0641C123.964 49.9392 123.47 49.3801 123.16 48.745C123.667 48.2655 124.045 47.6661 124.259 47.0024C123.784 47.2404 123.277 47.4078 122.753 47.4991C122.659 47.0063 122.672 46.4992 122.791 46.0117C122.883 45.6226 123.069 45.262 123.334 44.9618C123.599 44.6616 123.934 44.4311 124.31 44.2909C124.692 44.165 125.105 44.1723 125.482 44.3114C125.858 44.4505 126.176 44.7133 126.383 45.0563C126.406 44.6868 126.311 44.3196 126.111 44.0075C125.911 43.6953 125.616 43.4543 125.27 43.3192C125.523 43.1887 125.802 43.1181 126.087 43.1129C126.372 43.1076 126.654 43.1679 126.911 43.289C127.168 43.4102 127.394 43.5888 127.571 43.8111C127.747 44.0334 127.87 44.2933 127.929 44.5705C129.16 43.9562 130.573 43.8058 131.907 44.1471C133.227 44.4918 134.978 45.9493 134.978 45.9493C137.955 46.6035 137.814 57.8729 132.003 56.5565Z" fill="#2F2E41"/>
<path d="M163.096 157.203C163.164 157.207 163.231 157.189 163.288 157.153C163.346 157.116 163.391 157.063 163.417 157.001C163.443 156.939 163.45 156.87 163.435 156.803C163.421 156.737 163.386 156.677 163.336 156.631L163.313 156.541L163.322 156.52C163.391 156.359 163.506 156.222 163.652 156.125C163.799 156.029 163.97 155.978 164.146 155.979C164.322 155.979 164.493 156.032 164.639 156.129C164.785 156.226 164.898 156.364 164.965 156.526C165.234 157.17 165.576 157.815 165.661 158.497C165.698 158.798 165.682 159.103 165.614 159.399C166.246 158.028 166.573 156.539 166.575 155.031C166.575 154.653 166.554 154.275 166.512 153.899C166.477 153.59 166.429 153.284 166.367 152.981C166.028 151.332 165.302 149.787 164.247 148.472C163.737 148.195 163.324 147.768 163.064 147.25C162.97 147.064 162.904 146.865 162.867 146.66C162.979 146.367 163.038 146.055 163.041 145.741C163.121 145.62 163.265 145.56 163.352 145.442C163.788 144.853 164.389 144.956 164.702 145.755C165.372 146.092 165.379 146.65 164.968 147.187C164.706 147.528 164.67 147.99 164.441 148.356C164.465 148.386 164.489 148.415 164.513 148.445C164.944 148.997 165.32 149.59 165.635 150.215C165.559 149.515 165.65 148.806 165.902 148.148C166.158 147.534 166.637 147.018 167.058 146.487C167.17 146.345 167.322 146.238 167.494 146.181C167.666 146.125 167.851 146.12 168.026 146.168C168.201 146.216 168.358 146.315 168.477 146.451C168.595 146.588 168.671 146.756 168.693 146.936L168.696 146.959C168.633 146.994 168.572 147.032 168.512 147.071C168.436 147.121 168.378 147.193 168.344 147.277C168.31 147.36 168.303 147.452 168.322 147.54C168.342 147.629 168.388 147.709 168.454 147.77C168.52 147.832 168.604 147.872 168.693 147.886L168.702 147.888C168.68 148.112 168.641 148.335 168.584 148.554C169.125 150.637 167.957 151.395 166.289 151.429C166.253 151.448 166.217 151.467 166.18 151.485C166.497 152.378 166.695 153.309 166.771 154.253C166.814 154.81 166.811 155.37 166.763 155.927L166.766 155.907C166.887 155.288 167.219 154.729 167.705 154.325C168.428 153.734 169.449 153.517 170.229 153.042C170.312 152.989 170.409 152.96 170.507 152.96C170.606 152.96 170.702 152.988 170.785 153.04C170.868 153.093 170.935 153.168 170.976 153.257C171.018 153.346 171.033 153.444 171.02 153.542L171.017 153.562C170.901 153.609 170.788 153.664 170.678 153.725C170.615 153.76 170.554 153.797 170.494 153.837C170.419 153.887 170.36 153.959 170.327 154.042C170.293 154.126 170.285 154.218 170.305 154.306C170.324 154.394 170.37 154.474 170.437 154.536C170.503 154.598 170.586 154.638 170.676 154.652L170.685 154.653L170.704 154.656C170.505 155.128 170.226 155.563 169.879 155.941C169.541 157.759 168.088 157.931 166.534 157.402H166.533C166.362 158.139 166.115 158.857 165.796 159.544H163.162C163.152 159.515 163.144 159.485 163.135 159.456C163.379 159.471 163.624 159.457 163.864 159.413C163.669 159.174 163.473 158.933 163.278 158.695C163.273 158.69 163.269 158.686 163.266 158.681C163.166 158.559 163.066 158.437 162.967 158.315C162.962 157.941 163.005 157.567 163.096 157.203Z" fill="#F2F2F2"/>
<path d="M75.4038 159.917L181.675 160C181.761 160 181.843 159.966 181.904 159.905C181.965 159.845 181.999 159.763 181.999 159.677C181.999 159.591 181.965 159.509 181.904 159.448C181.843 159.388 181.761 159.354 181.675 159.354L75.4038 159.27C75.3177 159.27 75.2351 159.304 75.1742 159.365C75.1133 159.426 75.0791 159.508 75.0791 159.593C75.0791 159.679 75.1133 159.761 75.1742 159.822C75.2351 159.883 75.3177 159.917 75.4038 159.917Z" fill="#CACACA"/>
<path d="M69.9754 114.62C69.2125 114.62 68.4667 114.394 67.8324 113.972C67.1981 113.551 66.7037 112.951 66.4118 112.249C66.1198 111.548 66.0434 110.776 66.1923 110.031C66.3411 109.286 66.7085 108.602 67.2479 108.065C67.7874 107.528 68.4747 107.163 69.2229 107.014C69.9711 106.866 70.7467 106.942 71.4515 107.233C72.1563 107.524 72.7587 108.016 73.1825 108.647C73.6064 109.278 73.8326 110.021 73.8326 110.78C73.8314 111.798 73.4247 112.774 72.7016 113.494C71.9785 114.213 70.998 114.618 69.9754 114.62ZM69.9754 107.484C69.3204 107.484 68.6801 107.677 68.1354 108.039C67.5908 108.401 67.1663 108.916 66.9156 109.519C66.665 110.121 66.5994 110.784 66.7272 111.423C66.855 112.063 67.1704 112.65 67.6335 113.111C68.0967 113.572 68.6868 113.886 69.3293 114.013C69.9717 114.141 70.6376 114.075 71.2428 113.826C71.8479 113.576 72.3652 113.154 72.7291 112.612C73.093 112.069 73.2872 111.432 73.2872 110.78C73.2863 109.906 72.937 109.068 72.3161 108.45C71.6953 107.832 70.8534 107.484 69.9754 107.484Z" fill="#F2F2F2"/>
<path d="M71.4857 110.6L70.2896 109.152C70.2571 109.113 70.2165 109.081 70.1704 109.059C70.1244 109.037 70.0741 109.025 70.023 109.024C69.972 109.024 69.9213 109.034 69.8746 109.054C69.8279 109.075 69.7862 109.105 69.7524 109.144L68.4732 110.592C68.4121 110.661 68.3813 110.753 68.3875 110.845C68.3937 110.938 68.4365 111.024 68.5065 111.085C68.5764 111.147 68.6679 111.178 68.7609 111.172C68.8539 111.166 68.9409 111.124 69.0028 111.055L69.6646 110.306V112.184C69.6646 112.277 69.7018 112.367 69.7679 112.433C69.834 112.498 69.9237 112.535 70.0172 112.535C70.1107 112.535 70.2004 112.498 70.2665 112.433C70.3326 112.367 70.3698 112.277 70.3698 112.184V110.355L70.9411 111.046C71.0005 111.118 71.0861 111.164 71.1792 111.173C71.2723 111.182 71.3651 111.153 71.4373 111.094C71.5096 111.035 71.5552 110.95 71.5643 110.857C71.5734 110.765 71.5451 110.672 71.4857 110.6Z" fill="#F2F2F2"/>
<path d="M113.877 57.892C113.114 57.892 112.368 57.6668 111.734 57.2449C111.099 56.823 110.605 56.2234 110.313 55.5218C110.021 54.8203 109.945 54.0483 110.094 53.3035C110.242 52.5587 110.61 51.8746 111.149 51.3377C111.689 50.8007 112.376 50.4351 113.124 50.2869C113.872 50.1388 114.648 50.2148 115.353 50.5054C116.058 50.796 116.66 51.2881 117.084 51.9195C117.508 52.5509 117.734 53.2932 117.734 54.0525C117.733 55.0705 117.326 56.0464 116.603 56.7661C115.88 57.4859 114.899 57.8908 113.877 57.892ZM113.877 50.756C113.222 50.756 112.581 50.9493 112.037 51.3116C111.492 51.6738 111.068 52.1886 110.817 52.791C110.566 53.3934 110.501 54.0562 110.629 54.6957C110.756 55.3352 111.072 55.9225 111.535 56.3836C111.998 56.8446 112.588 57.1586 113.231 57.2858C113.873 57.413 114.539 57.3477 115.144 57.0982C115.749 56.8487 116.267 56.4261 116.63 55.884C116.994 55.3419 117.189 54.7045 117.189 54.0525C117.188 53.1785 116.838 52.3406 116.218 51.7226C115.597 51.1046 114.755 50.757 113.877 50.756Z" fill="#F2F2F2"/>
<path d="M115.387 53.8731L114.191 52.4252C114.158 52.3859 114.118 52.3541 114.072 52.332C114.026 52.3099 113.975 52.298 113.924 52.2972C113.873 52.2963 113.823 52.3065 113.776 52.3271C113.729 52.3477 113.688 52.3781 113.654 52.4163L112.375 53.8642C112.313 53.9342 112.283 54.0254 112.289 54.118C112.295 54.2105 112.338 54.2968 112.408 54.3581C112.478 54.4193 112.569 54.4505 112.662 54.4448C112.755 54.4391 112.842 54.3971 112.904 54.3278L113.566 53.5786V55.4571C113.566 55.5502 113.603 55.6395 113.669 55.7053C113.735 55.7711 113.825 55.8081 113.919 55.8081C114.012 55.8081 114.102 55.7711 114.168 55.7053C114.234 55.6395 114.271 55.5502 114.271 55.4571V53.6274L114.842 54.3189C114.902 54.3908 114.987 54.4363 115.081 54.4453C115.174 54.4543 115.266 54.4262 115.339 54.3671C115.411 54.3079 115.457 54.2227 115.466 54.13C115.475 54.0374 115.447 53.945 115.387 53.8731Z" fill="#F2F2F2"/>
<path d="M26.8914 54.6351C26.1285 54.6351 25.3828 54.4099 24.7484 53.9881C24.1141 53.5662 23.6197 52.9666 23.3278 52.265C23.0359 51.5634 22.9595 50.7915 23.1083 50.0467C23.2571 49.3019 23.6245 48.6178 24.1639 48.0808C24.7034 47.5439 25.3907 47.1782 26.1389 47.0301C26.8871 46.8819 27.6627 46.958 28.3675 47.2486C29.0723 47.5392 29.6747 48.0313 30.0986 48.6626C30.5224 49.294 30.7486 50.0363 30.7486 50.7957C30.7475 51.8136 30.3407 52.7895 29.6176 53.5093C28.8945 54.2291 27.914 54.634 26.8914 54.6351ZM26.8914 47.4991C26.2364 47.4991 25.5961 47.6925 25.0514 48.0547C24.5068 48.417 24.0823 48.9318 23.8316 49.5342C23.581 50.1365 23.5154 50.7994 23.6432 51.4388C23.771 52.0783 24.0864 52.6657 24.5496 53.1267C25.0127 53.5878 25.6029 53.9017 26.2453 54.0289C26.8877 54.1561 27.5536 54.0909 28.1588 53.8413C28.764 53.5918 29.2812 53.1693 29.6451 52.6272C30.009 52.0851 30.2033 51.4477 30.2033 50.7957C30.2023 49.9217 29.853 49.0838 29.2322 48.4658C28.6113 47.8477 27.7695 47.5001 26.8914 47.4991Z" fill="#F2F2F2"/>
<path d="M28.4018 50.616L27.2056 49.1681C27.1731 49.1288 27.1325 49.097 27.0865 49.0749C27.0404 49.0528 26.9902 49.0409 26.9391 49.0401C26.888 49.0392 26.8373 49.0495 26.7906 49.07C26.7439 49.0906 26.7022 49.121 26.6685 49.1592L25.3893 50.6071C25.3281 50.6771 25.2973 50.7683 25.3035 50.8609C25.3097 50.9534 25.3525 51.0397 25.4225 51.101C25.4925 51.1622 25.5839 51.1934 25.6769 51.1877C25.7699 51.1821 25.8569 51.14 25.9188 51.0707L26.5806 50.3215V52.2C26.5806 52.2931 26.6178 52.3824 26.6839 52.4482C26.75 52.514 26.8397 52.551 26.9332 52.551C27.0267 52.551 27.1164 52.514 27.1825 52.4482C27.2486 52.3824 27.2858 52.2931 27.2858 52.2V50.3703L27.8571 51.0618C27.9165 51.1337 28.0021 51.1792 28.0952 51.1882C28.1883 51.1972 28.2811 51.1691 28.3534 51.11C28.4256 51.0509 28.4713 50.9656 28.4803 50.873C28.4894 50.7803 28.4612 50.6879 28.4018 50.616Z" fill="#F2F2F2"/>
<path d="M57.7039 7.67883C56.941 7.67883 56.1953 7.45366 55.5609 7.03178C54.9266 6.6099 54.4322 6.01026 54.1403 5.3087C53.8484 4.60714 53.772 3.83516 53.9208 3.09039C54.0696 2.34561 54.437 1.66149 54.9764 1.12454C55.5159 0.58759 56.2032 0.221921 56.9514 0.0737761C57.6996 -0.0743688 58.4752 0.00166091 59.18 0.292257C59.8848 0.582853 60.4872 1.07496 60.9111 1.70635C61.3349 2.33774 61.5611 3.08005 61.5611 3.83942C61.56 4.85734 61.1532 5.83324 60.4301 6.55302C59.707 7.2728 58.7265 7.67768 57.7039 7.67883ZM57.7039 0.542852C57.0489 0.542851 56.4086 0.736193 55.8639 1.09843C55.3193 1.46066 54.8948 1.97551 54.6441 2.57788C54.3935 3.18025 54.3279 3.84308 54.4557 4.48255C54.5835 5.12202 54.8989 5.70942 55.3621 6.17045C55.8252 6.63148 56.4154 6.94545 57.0578 7.07265C57.7002 7.19985 58.3661 7.13457 58.9713 6.88506C59.5765 6.63555 60.0937 6.21301 60.4576 5.67089C60.8215 5.12877 61.0158 4.49142 61.0158 3.83942C61.0148 2.96541 60.6655 2.12748 60.0447 1.50946C59.4238 0.891444 58.582 0.543822 57.7039 0.542852Z" fill="#F2F2F2"/>
<path d="M59.2143 3.65993L58.0181 2.21201C57.9856 2.17274 57.945 2.14095 57.899 2.11885C57.8529 2.09675 57.8027 2.08487 57.7516 2.08403C57.7005 2.08319 57.6498 2.09341 57.6031 2.11398C57.5564 2.13454 57.5147 2.16497 57.481 2.20316L56.2018 3.65107C56.1406 3.72106 56.1098 3.81229 56.116 3.90482C56.1222 3.99736 56.165 4.08368 56.235 4.14492C56.305 4.20617 56.3964 4.23736 56.4894 4.23168C56.5824 4.226 56.6694 4.18391 56.7313 4.11461L57.3931 3.36549V5.24398C57.3931 5.33705 57.4303 5.42632 57.4964 5.49213C57.5625 5.55795 57.6522 5.59492 57.7457 5.59492C57.8392 5.59492 57.9289 5.55795 57.995 5.49213C58.0611 5.42632 58.0983 5.33705 58.0983 5.24398V3.41428L58.6696 4.10577C58.729 4.17766 58.8146 4.22313 58.9077 4.23216C59.0008 4.24119 59.0936 4.21305 59.1659 4.15393C59.2381 4.09481 59.2838 4.00954 59.2928 3.9169C59.3019 3.82426 59.2737 3.73182 59.2143 3.65993Z" fill="#F2F2F2"/>
<path d="M16.5302 83.1343C15.7673 83.1343 15.0215 82.9091 14.3872 82.4872C13.7528 82.0654 13.2584 81.4657 12.9665 80.7641C12.6745 80.0626 12.5981 79.2906 12.747 78.5458C12.8958 77.801 13.2632 77.1168 13.8026 76.5799C14.3421 76.0429 15.0294 75.6772 15.7776 75.5291C16.5259 75.381 17.3015 75.457 18.0063 75.7476C18.7111 76.0382 19.3135 76.5303 19.7374 77.1617C20.1612 77.7932 20.3874 78.5355 20.3874 79.2949C20.3863 80.3128 19.9795 81.2887 19.2564 82.0085C18.5333 82.7282 17.5528 83.1331 16.5302 83.1343ZM16.5302 75.9982C15.8752 75.9982 15.2348 76.1915 14.6902 76.5537C14.1455 76.9159 13.721 77.4308 13.4703 78.0332C13.2197 78.6355 13.1541 79.2984 13.2818 79.9379C13.4096 80.5774 13.725 81.1648 14.1882 81.6258C14.6514 82.0869 15.2415 82.4009 15.884 82.5281C16.5264 82.6553 17.1923 82.59 17.7975 82.3405C18.4027 82.091 18.9199 81.6685 19.2839 81.1264C19.6478 80.5843 19.842 79.9469 19.8421 79.2949C19.8411 78.4209 19.4919 77.5829 18.871 76.9649C18.2501 76.3468 17.4083 75.9992 16.5302 75.9982Z" fill="white"/>
<path d="M18.0395 79.1153L16.8433 77.6673C16.8108 77.6281 16.7702 77.5963 16.7242 77.5742C16.6781 77.5521 16.6278 77.5402 16.5768 77.5394C16.5257 77.5385 16.475 77.5487 16.4283 77.5693C16.3816 77.5899 16.3399 77.6203 16.3062 77.6585L15.027 79.1064C14.9658 79.1764 14.935 79.2676 14.9412 79.3601C14.9474 79.4527 14.9902 79.539 15.0602 79.6002C15.1301 79.6615 15.2216 79.6927 15.3146 79.687C15.4076 79.6813 15.4946 79.6392 15.5565 79.5699L16.2183 78.8208V80.6993C16.2183 80.7924 16.2555 80.8816 16.3216 80.9475C16.3877 81.0133 16.4774 81.0503 16.5709 81.0503C16.6644 81.0503 16.7541 81.0133 16.8202 80.9475C16.8863 80.8816 16.9235 80.7924 16.9235 80.6993V78.8696L17.4948 79.5611C17.5542 79.633 17.6398 79.6784 17.7329 79.6875C17.826 79.6965 17.9188 79.6684 17.9911 79.6093C18.0633 79.5501 18.109 79.4649 18.118 79.3722C18.1271 79.2796 18.0988 79.1871 18.0395 79.1153Z" fill="white"/>
<path d="M99.9706 18.8071C99.2077 18.8072 98.4619 18.582 97.8276 18.1601C97.1933 17.7382 96.6989 17.1386 96.4069 16.437C96.115 15.7354 96.0386 14.9634 96.1874 14.2186C96.3362 13.4738 96.7036 12.7897 97.2431 12.2527C97.7825 11.7158 98.4698 11.3501 99.2181 11.2019C99.9663 11.0538 100.742 11.1298 101.447 11.4204C102.152 11.7111 102.754 12.2032 103.178 12.8346C103.602 13.466 103.828 14.2083 103.828 14.9677C103.827 15.9856 103.42 16.9615 102.697 17.6813C101.974 18.4011 100.993 18.806 99.9706 18.8071ZM99.9706 11.671C99.3156 11.671 98.6753 11.8643 98.1306 12.2266C97.586 12.5888 97.1615 13.1037 96.9108 13.706C96.6601 14.3084 96.5945 14.9712 96.7223 15.6107C96.8501 16.2502 97.1655 16.8376 97.6286 17.2987C98.0918 17.7597 98.6819 18.0737 99.3244 18.2009C99.9668 18.3281 100.633 18.2629 101.238 18.0134C101.843 17.7639 102.36 17.3413 102.724 16.7992C103.088 16.2571 103.282 15.6197 103.282 14.9677C103.282 14.0937 102.932 13.2558 102.311 12.6377C101.691 12.0197 100.849 11.672 99.9706 11.671Z" fill="white"/>
<path d="M101.48 14.7881L100.284 13.3402C100.251 13.3009 100.211 13.2691 100.165 13.247C100.119 13.2249 100.068 13.213 100.017 13.2122C99.9661 13.2114 99.9155 13.2216 99.8687 13.2421C99.822 13.2627 99.7803 13.2931 99.7466 13.3313L98.4674 14.7792C98.4062 14.8492 98.3754 14.9405 98.3816 15.033C98.3879 15.1255 98.4306 15.2119 98.5006 15.2731C98.5706 15.3343 98.6621 15.3655 98.7551 15.3599C98.8481 15.3542 98.935 15.3121 98.9969 15.2428L99.6588 14.4937V16.3721C99.6588 16.4652 99.6959 16.5545 99.762 16.6203C99.8282 16.6861 99.9178 16.7231 100.011 16.7231C100.105 16.7231 100.195 16.6861 100.261 16.6203C100.327 16.5545 100.364 16.4652 100.364 16.3721V14.5425L100.935 15.2339C100.995 15.3058 101.08 15.3513 101.173 15.3603C101.266 15.3694 101.359 15.3412 101.431 15.2821C101.504 15.223 101.549 15.1377 101.558 15.0451C101.568 14.9524 101.539 14.86 101.48 14.7881Z" fill="white"/>
</g>
<defs>
<clipPath id="clip0_455_570">
<rect width="182" height="160" fill="white"/>
</clipPath>
</defs>
</svg>
