<svg width="20" height="21" viewBox="0 0 20 21" fill="none" xmlns="http://www.w3.org/2000/svg">
<mask id="mask0_798_638" style="mask-type:alpha" maskUnits="userSpaceOnUse" x="0" y="0" width="20" height="21">
<rect y="0.5" width="20" height="20" fill="#D9D9D9"/>
</mask>
<g mask="url(#mask0_798_638)">
<path d="M7.70837 17.0824V6.00549L6.31253 7.40924L5.53857 6.63529L8.25003 3.92383L10.9615 6.63529L10.1875 7.40133L8.7917 6.00549V12.2378C9.23725 11.7122 9.73482 11.3126 10.2844 11.039C10.8341 10.7656 11.4241 10.6288 12.0544 10.6288C12.2927 10.6288 12.5353 10.642 12.7821 10.6682C13.0289 10.6943 13.2688 10.7266 13.5017 10.7651L12.0977 9.36925L12.8719 8.59529L15.5834 11.3067L12.8719 14.0182L12.0977 13.2442L13.5017 11.8484C13.2795 11.8099 13.0554 11.7776 12.8294 11.7513C12.6034 11.7252 12.3766 11.7122 12.149 11.7122C11.3723 11.7122 10.6803 11.9392 10.0729 12.3932C9.46559 12.8472 9.0385 13.4744 8.7917 14.2747V17.0824H7.70837Z" fill="#717AEA"/>
</g>
</svg>
