<svg width="19" height="21" viewBox="0 0 19 21" fill="none" xmlns="http://www.w3.org/2000/svg">
<path d="M14.1831 0.814209H18.2161V1.72835H14.1831V0.814209Z" fill="white"/>
<path d="M18.2161 0.814209V4.8472H17.3019V0.814209H18.2161Z" fill="white"/>
<path d="M4.50537 20.1726H0.472383V19.2585H4.50537V20.1726Z" fill="white"/>
<path d="M0.472383 20.1726V16.1396H1.38653V20.1726H0.472383Z" fill="white"/>
<path d="M0.47168 0.814209H10.581V2.6425H0.47168V0.814209Z" fill="white"/>
<path d="M10.5833 0.814209L17.3565 6.94435L16.0637 8.23715L9.29048 2.107L10.5833 0.814209Z" fill="white"/>
<path d="M2.29997 6.70237L10.9037 13.5316L9.61088 14.8244L0.47168 7.53586L2.29997 6.70237Z" fill="white"/>
<path d="M0.47168 2.6425H2.29997L2.29997 6.70237L0.47168 7.53586L0.47168 2.6425Z" fill="white"/>
<path d="M18.2163 20.1479H8.10695V18.3197H18.2163V20.1479Z" fill="white"/>
<path d="M8.10471 20.1479L1.33153 14.0178L2.62432 12.725L9.39751 18.8552L8.10471 20.1479Z" fill="white"/>
<path d="M16.388 14.2598L7.64988 7.40147L8.94267 6.10867L18.2163 13.4263L16.388 14.2598Z" fill="white"/>
<path d="M18.2163 18.3197H16.388L16.388 14.2598L18.2163 13.4263L18.2163 18.3197Z" fill="white"/>
</svg>
