<svg width="19" height="19" viewBox="0 0 19 19" fill="none" xmlns="http://www.w3.org/2000/svg">
<path d="M8.625 10.375V12.125C8.625 12.3729 8.70885 12.5807 8.87656 12.7484C9.04427 12.9161 9.25208 13 9.5 13C9.74792 13 9.95573 12.9161 10.1234 12.7484C10.2911 12.5807 10.375 12.3729 10.375 12.125V10.375H12.125C12.3729 10.375 12.5807 10.2911 12.7484 10.1234C12.9161 9.95573 13 9.74792 13 9.5C13 9.25208 12.9161 9.04427 12.7484 8.87656C12.5807 8.70885 12.3729 8.625 12.125 8.625H10.375V6.875C10.375 6.62708 10.2911 6.41927 10.1234 6.25156C9.95573 6.08385 9.74792 6 9.5 6C9.25208 6 9.04427 6.08385 8.87656 6.25156C8.70885 6.41927 8.625 6.62708 8.625 6.875V8.625H6.875C6.62708 8.625 6.41927 8.70885 6.25156 8.87656C6.08385 9.04427 6 9.25208 6 9.5C6 9.74792 6.08385 9.95573 6.25156 10.1234C6.41927 10.2911 6.62708 10.375 6.875 10.375H8.625ZM9.5 18.25C9.26667 18.25 9.04427 18.2099 8.83281 18.1297C8.62135 18.0495 8.43542 17.9219 8.275 17.7469L1.29688 10.7469C1.13646 10.5719 1.00521 10.3786 0.903125 10.1672C0.801042 9.95573 0.75 9.73333 0.75 9.5C0.75 9.26667 0.801042 9.04427 0.903125 8.83281C1.00521 8.62135 1.13646 8.43542 1.29688 8.275L8.275 1.275C8.45 1.1 8.63958 0.96875 8.84375 0.88125C9.04792 0.79375 9.26667 0.75 9.5 0.75C9.73333 0.75 9.95938 0.79375 10.1781 0.88125C10.3969 0.96875 10.5865 1.1 10.7469 1.275L17.7031 8.275C17.8635 8.45 17.9948 8.63958 18.0969 8.84375C18.199 9.04792 18.25 9.26667 18.25 9.5C18.25 9.73333 18.2026 9.95573 18.1078 10.1672C18.013 10.3786 17.8781 10.5719 17.7031 10.7469L10.7469 17.7469C10.5865 17.9073 10.3969 18.0312 10.1781 18.1187C9.95938 18.2063 9.73333 18.25 9.5 18.25ZM9.5 16.5L16.4781 9.5L9.5 2.5L2.52188 9.5L9.5 16.5Z" fill="#1C1B1F"/>
</svg>
