<svg width="19" height="18" viewBox="0 0 19 18" fill="none" xmlns="http://www.w3.org/2000/svg">
<path d="M6.30868 16.7056L1.1447 11.5656C1.02315 11.444 0.92796 11.3104 0.85912 11.1648C0.790279 11.0191 0.755859 10.8615 0.755859 10.6921C0.755859 10.5287 0.790279 10.3662 0.85912 10.2045C0.92796 10.043 1.02315 9.90145 1.1447 9.77974L6.3475 4.56784L3.75257 2.00981C3.62591 1.88331 3.56817 1.74116 3.57935 1.58335C3.59037 1.42539 3.65913 1.28619 3.78563 1.16576C3.91213 1.04549 4.05125 0.985352 4.20298 0.985352C4.35472 0.985352 4.4908 1.04549 4.61123 1.16576L13.2013 9.78908C13.323 9.91063 13.4158 10.0482 13.4797 10.2019C13.5435 10.3554 13.5755 10.5138 13.5755 10.6772C13.5755 10.8468 13.5435 11.0084 13.4797 11.1619C13.4158 11.3155 13.323 11.4532 13.2013 11.5749L8.07058 16.7056C7.94887 16.8272 7.81127 16.9224 7.65778 16.9912C7.50412 17.06 7.3456 17.0945 7.1822 17.0945C7.01274 17.0785 6.85517 17.0401 6.70951 16.9792C6.56384 16.9184 6.43023 16.8272 6.30868 16.7056ZM7.1731 5.39345L2.11046 10.4561C2.07357 10.477 2.04897 10.5059 2.03667 10.5428C2.02437 10.5797 2.01822 10.6245 2.01822 10.6772H12.3277C12.3277 10.6245 12.3216 10.5797 12.3093 10.5428C12.297 10.5059 12.2724 10.477 12.2355 10.4561L7.1731 5.39345ZM16.3858 17.0705C15.8563 17.0705 15.4125 16.8938 15.0544 16.5405C14.6962 16.1874 14.517 15.7491 14.517 15.2257C14.517 14.8853 14.588 14.5508 14.73 14.2221C14.8719 13.8935 15.0534 13.591 15.2746 13.3145L15.938 12.5019C16.0535 12.3446 16.2012 12.2674 16.3812 12.2704C16.5613 12.2736 16.709 12.3538 16.8245 12.511L17.4733 13.3145C17.6846 13.591 17.8636 13.8935 18.0104 14.2221C18.1572 14.5508 18.2306 14.8853 18.2306 15.2257C18.2306 15.7491 18.0515 16.1874 17.6934 16.5405C17.3353 16.8938 16.8995 17.0705 16.3858 17.0705Z" fill="#1C1B1F"/>
</svg>
