<svg width="55" height="55" viewBox="0 0 55 55" fill="none" xmlns="http://www.w3.org/2000/svg">
<rect x="1" y="1" width="53" height="53" rx="26.5" fill="#EFF4FE"/>
<rect x="1" y="1" width="53" height="53" rx="26.5" stroke="#717AEA" stroke-width="2"/>
<mask id="mask0_218_2317" style="mask-type:alpha" maskUnits="userSpaceOnUse" x="12" y="12" width="31" height="31">
<rect x="12" y="12" width="31" height="31" fill="#D9D9D9"/>
</mask>
<g mask="url(#mask0_218_2317)">
<path d="M27.5 27.1025C26.2568 27.1025 25.1925 26.6598 24.3073 25.7746C23.4219 24.8892 22.9792 23.8249 22.9792 22.5816C22.9792 21.3384 23.4219 20.2742 24.3073 19.3889C25.1925 18.5035 26.2568 18.0608 27.5 18.0608C28.7432 18.0608 29.8075 18.5035 30.6927 19.3889C31.5781 20.2742 32.0208 21.3384 32.0208 22.5816C32.0208 23.8249 31.5781 24.8892 30.6927 25.7746C29.8075 26.6598 28.7432 27.1025 27.5 27.1025ZM17.8125 36.9391V34.0674C17.8125 33.435 17.9843 32.8492 18.3279 32.3101C18.6715 31.7711 19.1306 31.3567 19.7054 31.0669C20.982 30.4411 22.2699 29.9717 23.5691 29.6587C24.8683 29.3457 26.1786 29.1891 27.5 29.1891C28.8214 29.1891 30.1317 29.3457 31.4309 29.6587C32.7301 29.9717 34.018 30.4411 35.2946 31.0669C35.8694 31.3567 36.3285 31.7711 36.6721 32.3101C37.0157 32.8492 37.1875 33.435 37.1875 34.0674V36.9391H17.8125Z" fill="#717AEA"/>
</g>
</svg>
