<svg width="22" height="22" viewBox="0 0 22 22" fill="none" xmlns="http://www.w3.org/2000/svg">
<g clip-path="url(#clip0_912_482)">
<rect width="22" height="22" rx="3" fill="#EFF4FE"/>
<mask id="mask0_912_482" style="mask-type:alpha" maskUnits="userSpaceOnUse" x="0" y="3" width="20" height="20">
<rect y="3" width="20" height="20" fill="#D9D9D9"/>
</mask>
<g mask="url(#mask0_912_482)">
<path d="M4.99935 20.1667C4.55602 20.1667 4.18129 20.0136 3.87518 19.7075C3.56907 19.4014 3.41602 19.0267 3.41602 18.5833V15.6796H5.41602V5H16.5827V18.3333C16.5827 18.8461 16.4053 19.2799 16.0506 19.6346C15.6959 19.9893 15.2621 20.1667 14.7493 20.1667H4.99935ZM14.745 19.0833C14.9562 19.0833 15.1348 19.0115 15.2806 18.8677C15.4264 18.724 15.4993 18.5458 15.4993 18.3333V6.08333H6.49935V15.6796H13.9993V18.3333C13.9993 18.5458 14.0708 18.724 14.2137 18.8677C14.3566 19.0115 14.5337 19.0833 14.745 19.0833ZM7.5 11.7624V10.679H14.1796V11.7624H7.5ZM7.5 14.1663V13.083H14.1796V14.1663H7.5ZM4.99935 19.0833H12.916V16.7627H4.49935V18.5833C4.49935 18.725 4.54727 18.8437 4.6431 18.9396C4.73893 19.0354 4.85768 19.0833 4.99935 19.0833ZM4.99935 19.0833H4.49935H12.916H4.99935Z" fill="#717AEA"/>
</g>
<rect x="11" y="1" width="10" height="10" rx="5" fill="#EFF4FE"/>
<path d="M15.9994 2.78613V2.78613C16.1059 4.51533 17.4845 5.89398 19.2137 6.00042V6.00042V6.00042C17.4845 6.10685 16.1059 7.48551 15.9994 9.2147V9.2147V9.2147C15.893 7.48551 14.5144 6.10685 12.7852 6.00042V6.00042V6.00042C14.5144 5.89398 15.893 4.51533 15.9994 2.78613V2.78613Z" fill="#717AEA"/>
</g>
<defs>
<clipPath id="clip0_912_482">
<rect width="22" height="22" rx="3" fill="white"/>
</clipPath>
</defs>
</svg>
