<svg width="14" height="14" viewBox="0 0 14 14" fill="none" xmlns="http://www.w3.org/2000/svg">
<path d="M1.75581 13.5837C1.38067 13.5837 1.06358 13.4541 0.804557 13.1951C0.545529 12.9361 0.416016 12.619 0.416016 12.2439V1.75678C0.416016 1.38164 0.545529 1.06456 0.804557 0.805534C1.06358 0.546507 1.38067 0.416992 1.75581 0.416992H7.83914V1.50033H1.75581C1.68095 1.50033 1.61949 1.52435 1.57143 1.57241C1.52338 1.62046 1.49935 1.68192 1.49935 1.75678V12.2439C1.49935 12.3187 1.52338 12.3802 1.57143 12.4282C1.61949 12.4763 1.68095 12.5003 1.75581 12.5003H12.2429C12.3178 12.5003 12.3792 12.4763 12.4273 12.4282C12.4753 12.3802 12.4993 12.3187 12.4993 12.2439V6.16053H13.5827V12.2439C13.5827 12.619 13.4532 12.9361 13.1941 13.1951C12.9351 13.4541 12.618 13.5837 12.2429 13.5837H1.75581ZM2.81997 10.7439H11.1787L8.39518 7.03241L6.14518 9.94428L4.74935 8.19262L2.81997 10.7439ZM10.9993 4.50033V3.00033H9.49935V1.91699H10.9993V0.416992H12.0827V1.91699H13.5827V3.00033H12.0827V4.50033H10.9993Z" fill="#717AEA"/>
</svg>
