<svg width="20" height="20" viewBox="0 0 20 20" fill="none" xmlns="http://www.w3.org/2000/svg">
<mask id="mask0_6_236" style="mask-type:alpha" maskUnits="userSpaceOnUse" x="0" y="0" width="20" height="20">
<rect y="20" width="20" height="20" transform="rotate(-90 0 20)" fill="white"/>
</mask>
<g mask="url(#mask0_6_236)">
<path d="M17.2017 18.4568C17.2017 18.8812 17.0506 19.2445 16.7484 19.5467C16.4462 19.8489 16.0829 20 15.6585 20H4.34199C3.91762 20 3.55433 19.8489 3.25213 19.5467C2.94993 19.2445 2.79883 18.8812 2.79883 18.4568L2.79883 1.54316C2.79883 1.11879 2.94993 0.755505 3.25213 0.453302C3.55433 0.1511 3.91762 0 4.34199 0H15.6585C16.0829 0 16.4462 0.1511 16.7484 0.453302C17.0506 0.755505 17.2017 1.11879 17.2017 1.54316V18.4568ZM15.6585 18.4568L15.6585 1.54316H4.34199L4.34199 18.4568H15.6585Z" fill="#414141"/>
</g>
<line x1="4" y1="5.5" x2="16" y2="5.5" stroke="#414141"/>
<line x1="9.5" y1="6" x2="9.5" y2="-2.18558e-08" stroke="#414141"/>
<line x1="9.5" y1="16" x2="9.5" y2="10" stroke="#414141"/>
<line x1="4" y1="10.5" x2="16" y2="10.5" stroke="#414141"/>
<line x1="4" y1="15.5" x2="16" y2="15.5" stroke="#414141"/>
</svg>
