<svg width="39" height="40" viewBox="0 0 39 40" fill="none" xmlns="http://www.w3.org/2000/svg">
<g clip-path="url(#clip0_521_700)">
<path d="M27.2256 39.9996H16.6109C16.4875 39.9994 16.3692 39.9503 16.282 39.8631C16.1947 39.7758 16.1456 39.6575 16.1455 39.5342V32.1129C16.1456 31.9895 16.1947 31.8712 16.282 31.7839C16.3692 31.6967 16.4875 31.6476 16.6109 31.6475H27.2256C27.349 31.6476 27.4673 31.6967 27.5546 31.7839C27.6418 31.8712 27.6909 31.9895 27.691 32.1129V39.5342C27.6909 39.6575 27.6418 39.7758 27.5546 39.8631C27.4673 39.9503 27.349 39.9994 27.2256 39.9996Z" fill="#F2F2F2"/>
<path d="M9.87944 20.6544C9.9506 20.5633 10.0009 20.4578 10.0269 20.3451C10.0528 20.2325 10.0538 20.1155 10.0296 20.0025C10.0055 19.8895 9.95687 19.7831 9.88718 19.6909C9.81748 19.5987 9.72842 19.5229 9.62626 19.4688L9.55937 12.3691L8.23242 12.9781L8.52429 19.8445C8.44484 20.0222 8.43331 20.2228 8.49189 20.4083C8.55047 20.5939 8.67509 20.7515 8.84213 20.8514C9.00917 20.9512 9.20703 20.9863 9.39821 20.95C9.58939 20.9137 9.76062 20.8085 9.87944 20.6544Z" fill="#9E616A"/>
<path d="M9.84309 10.5716C9.84309 10.5716 8.55226 9.94541 8.37374 11.1268C8.19522 12.3081 7.46094 15.3827 7.46094 15.3827L9.68911 15.2252L9.84309 10.5716Z" fill="#9E616A"/>
<path d="M9.87944 20.6544C9.9506 20.5633 10.0009 20.4578 10.0269 20.3451C10.0528 20.2325 10.0538 20.1155 10.0296 20.0025C10.0055 19.8895 9.95687 19.7831 9.88718 19.6909C9.81748 19.5987 9.72842 19.5229 9.62626 19.4688L9.55937 12.3691L8.23242 12.9781L8.52429 19.8445C8.44484 20.0222 8.43331 20.2228 8.49189 20.4083C8.55047 20.5939 8.67509 20.7515 8.84213 20.8514C9.00917 20.9512 9.20703 20.9863 9.39821 20.95C9.58939 20.9137 9.76062 20.8085 9.87944 20.6544Z" fill="#9E616A"/>
<path d="M9.84309 10.5716C9.84309 10.5716 8.55226 9.94541 8.37374 11.1268C8.19522 12.3081 7.46094 15.3827 7.46094 15.3827L9.68911 15.2252L9.84309 10.5716Z" fill="#6C63FF"/>
<path d="M6.10625 37.9202C6.05413 37.9226 6.00253 37.9089 5.95845 37.881C5.91436 37.8531 5.87993 37.8123 5.8598 37.7642C5.83967 37.7161 5.83483 37.6629 5.84592 37.6119C5.85702 37.5609 5.88352 37.5146 5.92183 37.4792C5.92825 37.4537 5.93285 37.4354 5.93927 37.4099C5.93697 37.4043 5.93466 37.3988 5.93234 37.3932C5.87983 37.2692 5.79185 37.1635 5.67944 37.0893C5.56703 37.0151 5.43521 36.9758 5.30053 36.9763C5.16586 36.9768 5.03433 37.0171 4.92248 37.0921C4.81063 37.1671 4.72343 37.2735 4.67185 37.3979C4.46569 37.8944 4.20321 38.3918 4.13858 38.9168C4.11012 39.1489 4.12213 39.3841 4.17407 39.6121C3.68986 38.5558 3.43842 37.4078 3.4368 36.2459C3.4367 35.9543 3.4529 35.6629 3.48533 35.3732C3.51213 35.1356 3.5493 34.8997 3.59686 34.6656C3.85639 33.395 4.4136 32.2041 5.22275 31.1907C5.61437 30.9771 5.93108 30.6485 6.1302 30.2492C6.20234 30.1057 6.25332 29.9525 6.28157 29.7944C6.23739 29.8002 6.19249 29.8038 6.14832 29.8067C6.13455 29.8075 6.12007 29.8082 6.10631 29.8089L6.10112 29.8091C6.05256 29.8113 6.00442 29.7994 5.96247 29.7749C5.92052 29.7503 5.88657 29.7142 5.86469 29.6708C5.84281 29.6274 5.83395 29.5786 5.83916 29.5303C5.84437 29.4819 5.86343 29.4362 5.89406 29.3984C5.91314 29.3749 5.93222 29.3515 5.95132 29.328C5.98029 29.2918 6.00998 29.2563 6.03895 29.2201C6.0423 29.2167 6.04544 29.213 6.04837 29.2092C6.08169 29.168 6.115 29.1274 6.14832 29.0861C6.0875 28.9917 6.00571 28.9127 5.90932 28.8551C5.57545 28.6596 5.11484 28.795 4.87367 29.097C4.63178 29.399 4.58616 29.8227 4.67016 30.2C4.75278 30.5211 4.88943 30.8257 5.07428 31.1009C5.05617 31.1241 5.03734 31.1466 5.01924 31.1697C4.68826 31.5953 4.3998 32.0523 4.15797 32.5342C4.21678 31.9944 4.14659 31.4483 3.95317 30.9409C3.75715 30.468 3.38974 30.0697 3.06618 29.6609C2.67754 29.1699 1.8806 29.3842 1.81213 30.0067C1.81146 30.0127 1.81082 30.0187 1.81019 30.0247C1.85824 30.0518 1.90529 30.0806 1.95132 30.1111C2.00914 30.1497 2.05394 30.2049 2.07986 30.2694C2.10578 30.334 2.11159 30.4048 2.09655 30.4727C2.08151 30.5406 2.04631 30.6024 1.99556 30.6499C1.94481 30.6975 1.88089 30.7286 1.81216 30.7392L1.80512 30.7403C1.82224 30.9135 1.8525 31.0851 1.89565 31.2537C2.02066 31.7245 2.24157 32.1643 2.54454 32.5457C2.8475 32.927 3.22598 33.2417 3.65624 33.4699C3.68449 33.4844 3.71201 33.4988 3.74026 33.5126C3.4973 34.2011 3.3449 34.9184 3.28689 35.6462C3.25405 36.0756 3.25599 36.5069 3.29269 36.936L3.29051 36.9208C3.1978 36.4437 2.94327 36.0132 2.5699 35.702C2.01536 35.2464 1.23188 35.0787 0.633624 34.7125C0.570043 34.6717 0.496116 34.6499 0.420559 34.6497C0.345002 34.6495 0.270967 34.6709 0.207188 34.7115C0.14341 34.752 0.0925466 34.8099 0.0605972 34.8783C0.0286478 34.9468 0.0169456 35.023 0.0268702 35.0979C0.0276725 35.1032 0.0284873 35.1086 0.0293159 35.1139C0.118498 35.1502 0.205331 35.192 0.289311 35.2392C0.337369 35.2663 0.384412 35.2951 0.430441 35.3255C0.488265 35.3641 0.533072 35.4193 0.558987 35.4839C0.584903 35.5484 0.59072 35.6193 0.575678 35.6871C0.560636 35.755 0.525435 35.8168 0.474688 35.8644C0.423941 35.9119 0.360014 35.943 0.291284 35.9536L0.284241 35.9547C0.27917 35.9554 0.274826 35.9562 0.269764 35.9569C0.422144 36.3207 0.636015 36.6556 0.902009 36.9469C1.2306 37.2995 1.62775 37.5812 2.0691 37.7749C2.51045 37.9686 2.98671 38.07 3.46867 38.0731H3.4694C3.60023 38.6416 3.78979 39.195 4.03502 39.7243H6.05561C6.06286 39.7019 6.06938 39.6787 6.07589 39.6562C5.88886 39.668 5.7011 39.6568 5.51679 39.6229C5.6667 39.439 5.81661 39.2536 5.96653 39.0696C5.96988 39.0662 5.97302 39.0625 5.97595 39.0587C6.05199 38.9646 6.12876 38.8712 6.2048 38.777L6.20484 38.7769C6.2089 38.4883 6.17578 38.2004 6.10631 37.9203L6.10625 37.9202Z" fill="#F2F2F2"/>
<path d="M35.8953 37.9202C35.8432 37.9226 35.7916 37.9089 35.7475 37.881C35.7034 37.8531 35.669 37.8123 35.6489 37.7642C35.6287 37.7161 35.6239 37.6629 35.635 37.6119C35.6461 37.5609 35.6726 37.5146 35.7109 37.4792C35.7173 37.4537 35.7219 37.4354 35.7283 37.4099C35.726 37.4043 35.7237 37.3988 35.7214 37.3932C35.6689 37.2692 35.5809 37.1635 35.4685 37.0893C35.3561 37.0151 35.2243 36.9758 35.0896 36.9763C34.9549 36.9768 34.8234 37.0171 34.7115 37.0921C34.5997 37.1671 34.5125 37.2735 34.4609 37.3979C34.2548 37.8944 33.9923 38.3918 33.9276 38.9168C33.8992 39.1489 33.9112 39.3841 33.9631 39.6121C33.4789 38.5558 33.2275 37.4078 33.2259 36.2459C33.2258 35.9543 33.242 35.6629 33.2744 35.3732C33.3012 35.1356 33.3384 34.8997 33.3859 34.6656C33.6455 33.395 34.2027 32.2041 35.0118 31.1907C35.4034 30.9771 35.7201 30.6485 35.9193 30.2492C35.9914 30.1057 36.0424 29.9525 36.0706 29.7944C36.0265 29.8002 35.9816 29.8038 35.9374 29.8067C35.9236 29.8075 35.9091 29.8082 35.8954 29.8089L35.8902 29.8091C35.8416 29.8113 35.7935 29.7994 35.7515 29.7749C35.7096 29.7503 35.6756 29.7142 35.6538 29.6708C35.6319 29.6274 35.623 29.5786 35.6282 29.5303C35.6334 29.4819 35.6525 29.4362 35.6831 29.3984C35.7022 29.3749 35.7213 29.3515 35.7404 29.328C35.7694 29.2918 35.799 29.2563 35.828 29.2201C35.8314 29.2167 35.8345 29.213 35.8374 29.2092C35.8707 29.168 35.9041 29.1274 35.9374 29.0861C35.8766 28.9917 35.7948 28.9127 35.6984 28.8551C35.3645 28.6596 34.9039 28.795 34.6627 29.097C34.4208 29.399 34.3752 29.8227 34.4592 30.2C34.5418 30.5211 34.6785 30.8257 34.8633 31.1009C34.8452 31.1241 34.8264 31.1466 34.8083 31.1697C34.4773 31.5953 34.1889 32.0523 33.947 32.5342C34.0058 31.9944 33.9356 31.4483 33.7422 30.9409C33.5462 30.468 33.1788 30.0697 32.8552 29.6609C32.4666 29.1699 31.6697 29.3842 31.6012 30.0067C31.6005 30.0127 31.5999 30.0187 31.5992 30.0247C31.6473 30.0518 31.6943 30.0806 31.7404 30.1111C31.7982 30.1497 31.843 30.2049 31.8689 30.2694C31.8948 30.334 31.9007 30.4048 31.8856 30.4727C31.8706 30.5406 31.8354 30.6024 31.7846 30.6499C31.7339 30.6975 31.6699 30.7286 31.6012 30.7392L31.5942 30.7403C31.6113 30.9135 31.6416 31.0851 31.6847 31.2537C31.8097 31.7245 32.0306 32.1643 32.3336 32.5457C32.6366 32.927 33.015 33.2417 33.4453 33.4699C33.4736 33.4844 33.5011 33.4988 33.5293 33.5126C33.2864 34.2011 33.134 34.9184 33.076 35.6462C33.0431 36.0756 33.0451 36.5069 33.0817 36.936L33.0796 36.9208C32.9869 36.4437 32.7323 36.0132 32.359 35.702C31.8044 35.2464 31.0209 35.0787 30.4227 34.7125C30.3591 34.6717 30.2852 34.6499 30.2096 34.6497C30.1341 34.6495 30.06 34.6709 29.9963 34.7115C29.9325 34.752 29.8816 34.8099 29.8497 34.8783C29.8177 34.9468 29.806 35.023 29.8159 35.0979C29.8167 35.1032 29.8175 35.1086 29.8184 35.1139C29.9076 35.1502 29.9944 35.192 30.0784 35.2392C30.1264 35.2663 30.1735 35.2951 30.2195 35.3255C30.2773 35.3641 30.3221 35.4193 30.348 35.4839C30.374 35.5484 30.3798 35.6193 30.3647 35.6871C30.3497 35.755 30.3145 35.8168 30.2638 35.8644C30.213 35.9119 30.1491 35.943 30.0803 35.9536L30.0733 35.9547C30.0682 35.9554 30.0639 35.9562 30.0588 35.9569C30.2112 36.3207 30.4251 36.6556 30.6911 36.9469C31.0197 37.2995 31.4168 37.5812 31.8582 37.7749C32.2995 37.9686 32.7758 38.07 33.2577 38.0731H33.2585C33.3893 38.6416 33.5789 39.195 33.8241 39.7243H35.8447C35.8519 39.7019 35.8584 39.6787 35.865 39.6562C35.6779 39.668 35.4902 39.6568 35.3058 39.6229C35.4558 39.439 35.6057 39.2536 35.7556 39.0696C35.7589 39.0662 35.7621 39.0625 35.765 39.0587C35.8411 38.9646 35.9178 38.8712 35.9939 38.777L35.9939 38.7769C35.998 38.4883 35.9648 38.2004 35.8954 37.9203L35.8953 37.9202Z" fill="#F2F2F2"/>
<path d="M28.1145 39.7115C28.1087 39.7115 28.1029 39.7113 28.0971 39.7112C27.9492 39.7028 27.8103 39.6376 27.7093 39.5293C27.6082 39.421 27.5529 39.278 27.5547 39.1299C27.5547 38.2288 26.911 37.7032 26.2731 37.582C25.6353 37.4609 24.8437 37.7137 24.5133 38.5522L24.2129 39.3062C23.9532 39.5653 23.6013 39.7108 23.2345 39.7108C22.8676 39.7108 22.5158 39.5653 22.2561 39.3062L22.2383 39.2885L22.2493 39.2658L27.5547 28.4111V28.1451C27.5473 28.0631 27.5474 27.9806 27.5548 27.8986L27.5547 0.559635C27.5547 0.484697 27.5697 0.410521 27.5989 0.341509C27.6281 0.272496 27.6709 0.210052 27.7247 0.157882C27.7785 0.105712 27.8422 0.0648781 27.9121 0.0378029C27.982 0.0107276 28.0566 -0.00203836 28.1315 0.000264229C28.2793 0.00871556 28.4182 0.073864 28.5193 0.182149C28.6203 0.290434 28.6757 0.433515 28.6739 0.581608V27.9017C28.6813 27.9837 28.6812 28.0662 28.6738 28.1482L28.6739 28.411L33.9903 39.2885L33.9725 39.3062C33.7128 39.5653 33.3609 39.7108 32.9941 39.7108C32.6273 39.7108 32.2754 39.5653 32.0157 39.3062L32.0078 39.2942L31.7153 38.5522C31.3849 37.7138 30.5934 37.4611 29.9555 37.582C29.3176 37.7032 28.6739 38.2288 28.6739 39.1299V39.1519C28.6739 39.3003 28.615 39.4426 28.5101 39.5475C28.4052 39.6524 28.2629 39.7114 28.1145 39.7115Z" fill="#E6E6E6"/>
<path d="M37.8256 19.7879H18.4024C18.1766 19.7876 17.9602 19.6978 17.8005 19.5382C17.6408 19.3785 17.551 19.1621 17.5508 18.9363V5.3565C17.551 5.13071 17.6408 4.91425 17.8005 4.75459C17.9601 4.59494 18.1766 4.50513 18.4024 4.50488H37.8256C38.0514 4.50514 38.2679 4.59495 38.4275 4.7546C38.5872 4.91426 38.677 5.13072 38.6772 5.3565V18.9363C38.677 19.162 38.5872 19.3785 38.4275 19.5381C38.2679 19.6978 38.0514 19.7876 37.8256 19.7879Z" fill="white"/>
<path d="M37.8258 19.8937H18.4026C18.1488 19.8934 17.9055 19.7924 17.726 19.613C17.5466 19.4335 17.4456 19.1902 17.4453 18.9365V5.35664C17.4456 5.10285 17.5466 4.85954 17.726 4.68009C17.9055 4.50064 18.1488 4.3997 18.4026 4.39941H37.8258C38.0796 4.39971 38.3229 4.50065 38.5024 4.6801C38.6818 4.85955 38.7828 5.10286 38.783 5.35664V18.9365C38.7827 19.1902 38.6818 19.4335 38.5024 19.613C38.3229 19.7924 38.0796 19.8934 37.8258 19.8937ZM18.4026 4.61069C18.2048 4.6109 18.0152 4.68956 17.8753 4.82941C17.7355 4.96925 17.6568 5.15886 17.6566 5.35664V18.9365C17.6568 19.1342 17.7355 19.3238 17.8754 19.4637C18.0152 19.6035 18.2048 19.6822 18.4026 19.6824H37.8258C38.0236 19.6822 38.2132 19.6035 38.353 19.4637C38.4929 19.3238 38.5715 19.1342 38.5718 18.9365V5.35664C38.5716 5.15887 38.4929 4.96926 38.353 4.82941C38.2132 4.68957 38.0236 4.61091 37.8258 4.61069H18.4026Z" fill="#F2F2F2"/>
<path d="M30.9862 5.35401H25.2426C24.8785 5.3536 24.5294 5.20876 24.2719 4.95127C24.0144 4.69379 23.8696 4.34468 23.8691 3.98054V3.95557H32.3597V3.98054C32.3593 4.34468 32.2144 4.69379 31.957 4.95127C31.6995 5.20876 31.3504 5.3536 30.9862 5.35401Z" fill="#E6E6E6"/>
<path d="M31.0106 20.6372H25.267C24.9029 20.6368 24.5538 20.492 24.2963 20.2345C24.0388 19.977 23.894 19.6279 23.8936 19.2637V19.2388H32.3841V19.2637C32.3837 19.6279 32.2388 19.977 31.9814 20.2345C31.7239 20.492 31.3748 20.6368 31.0106 20.6372Z" fill="#E6E6E6"/>
<path d="M38.7101 39.7811C38.7102 39.7921 38.708 39.803 38.7038 39.8132C38.6996 39.8234 38.6934 39.8326 38.6857 39.8404C38.6779 39.8482 38.6686 39.8544 38.6584 39.8586C38.6482 39.8628 38.6373 39.8649 38.6263 39.8649H0.0838051C0.0615786 39.8649 0.0402644 39.856 0.0245479 39.8403C0.00883145 39.8246 0 39.8033 0 39.7811C0 39.7588 0.00883145 39.7375 0.0245479 39.7218C0.0402644 39.7061 0.0615786 39.6973 0.0838051 39.6973H38.6263C38.6373 39.6972 38.6482 39.6994 38.6584 39.7036C38.6686 39.7078 38.6779 39.7139 38.6856 39.7217C38.6934 39.7295 38.6996 39.7388 38.7038 39.749C38.708 39.7591 38.7102 39.7701 38.7101 39.7811Z" fill="#CCCCCC"/>
<path d="M12.9797 37.8306H13.9949L14.4779 33.9146L12.9795 33.9146L12.9797 37.8306Z" fill="#9E616A"/>
<path d="M12.635 37.3297L14.2399 37.2339V37.9215L15.7657 38.9753C15.8411 39.0273 15.8978 39.1021 15.9277 39.1887C15.9576 39.2753 15.959 39.3691 15.9317 39.4566C15.9045 39.544 15.85 39.6204 15.7762 39.6747C15.7024 39.729 15.6132 39.7582 15.5217 39.7582H13.611L13.2816 39.0781L13.153 39.7582H12.4326L12.635 37.3297Z" fill="#2F2E41"/>
<path d="M9.52679 16.0491L9.42735 16.523L9.34277 18.2713L12.7403 17.8113L13.0012 15.7869L12.6406 15.1943L9.52679 16.0491Z" fill="#9E616A"/>
<path d="M7.84103 37.8306H8.85627L9.33924 33.9146L7.84082 33.9146L7.84103 37.8306Z" fill="#9E616A"/>
<path d="M7.28989 30.9119L7.28986 30.9014L7.66989 29.1273L7.90423 28.2441L7.25285 23.0729C7.09948 19.3159 9.27912 17.5099 9.29627 17.4921L9.34354 17.443L12.8391 17.3574C14.7199 18.4843 14.507 24.6477 14.8514 28.8393C14.8759 29.1382 15.1846 29.5794 15.1087 29.8637C14.5069 32.1192 14.6831 34.5583 14.2247 34.6304L12.8189 34.6108L12.0929 31.3158L12.7631 28.8026C12.4658 28.7478 12.2604 27.2947 12.2604 27.2947C12.1309 27.1409 11.6838 25.833 11.6838 25.833L11.0876 22.2125L10.1298 28.4397L10.3604 29.9006L10.1695 30.4029L9.35203 34.5499L9.34334 34.6167L7.80208 34.4628L7.28989 30.9119Z" fill="#2F2E41"/>
<path d="M7.49729 37.3297L9.10219 37.2339V37.9215L10.628 38.9753C10.7034 39.0273 10.7601 39.1021 10.79 39.1887C10.8199 39.2753 10.8213 39.3691 10.794 39.4566C10.7668 39.544 10.7123 39.6204 10.6385 39.6747C10.5647 39.729 10.4755 39.7582 10.384 39.7582H8.47326L8.14392 39.0781L8.01533 39.7582H7.29492L7.49729 37.3297Z" fill="#2F2E41"/>
<path d="M12.3299 9.21167L13.1868 10.1638L14.2161 12.1038L13.7105 14.496L13.9315 15.6185L14.258 16.8525C13.0002 17.5483 11.5062 16.5874 10.1337 16.1607L8.7832 16.7573L8.85461 15.1149L8.89123 10.9767C8.89264 10.8178 8.9267 10.6608 8.9913 10.5156C9.0559 10.3704 9.14965 10.24 9.26675 10.1325C9.38385 10.025 9.52179 9.94276 9.672 9.89082C9.82222 9.83888 9.98151 9.81837 10.14 9.83056L11.0445 9.16406L12.3299 9.21167Z" fill="#6C63FF"/>
<path d="M12.0891 8.7134C13.087 8.7134 13.896 7.90442 13.896 6.9065C13.896 5.90858 13.087 5.09961 12.0891 5.09961C11.0912 5.09961 10.2822 5.90858 10.2822 6.9065C10.2822 7.90442 11.0912 8.7134 12.0891 8.7134Z" fill="#9E616A"/>
<path d="M14.2152 6.2543C14.1833 6.43134 13.4227 6.51679 13.4456 6.2018C13.2976 6.49836 13.0764 6.92872 13.3581 7.42169C13.2478 7.54188 13.1783 7.69387 13.1595 7.85594C13.1408 8.01801 13.1738 8.18186 13.2538 8.32405C13.3339 8.45435 13.4011 8.59221 13.4543 8.73565C13.465 8.77047 13.4727 8.80616 13.4772 8.84232C13.4817 8.87865 13.4764 8.91554 13.4618 8.94911C13.4471 8.98268 13.4238 9.01169 13.3941 9.03311C13.3644 9.05453 13.3294 9.06756 13.293 9.07084C13.2565 9.07412 13.2198 9.06753 13.1868 9.05175C12.4205 8.67645 11.0843 8.74006 10.246 8.96904C10.2516 8.80597 10.2494 8.64326 10.2393 8.48093C10.2087 8.68393 10.1268 8.87577 10.0014 9.03829C9.85787 9.08074 9.71713 9.12486 9.58086 9.16842C9.56008 9.17516 9.53787 9.17613 9.51658 9.17124C9.49529 9.16635 9.47572 9.15577 9.45996 9.14065C9.44421 9.12552 9.43285 9.1064 9.42709 9.08533C9.42133 9.06426 9.4214 9.04202 9.42728 9.02098C9.45384 8.92459 9.4588 8.82352 9.4418 8.72499C9.40717 8.52058 9.30441 8.33572 9.23181 8.14193C9.15921 7.94813 9.11788 7.7253 9.20668 7.53821C9.34462 7.24779 9.73333 7.15899 9.90478 6.88701C10.0975 6.58152 9.94779 6.18332 9.97795 5.82309C10.0204 5.31376 10.4376 4.89992 10.9078 4.69998C11.7221 4.35372 12.7408 4.63414 13.3512 5.27416C13.4368 5.21635 13.5368 5.18339 13.64 5.17895C13.7432 5.17452 13.8457 5.19877 13.9359 5.24903C14.1163 5.34565 14.2459 5.39591 14.3269 5.58412C14.3978 5.74943 14.2476 6.0767 14.2152 6.2543Z" fill="#2F2E41"/>
<path d="M13.4395 27.5028L9.18841 23.2516C9.13905 23.2022 9.11133 23.1351 9.11133 23.0652C9.11133 22.9954 9.13905 22.9283 9.18841 22.8789L12.1606 19.9067C12.2101 19.8573 12.2771 19.8296 12.347 19.8296C12.4169 19.8296 12.4839 19.8573 12.5334 19.9067L16.7845 24.1578C16.8339 24.2073 16.8616 24.2743 16.8616 24.3442C16.8616 24.4141 16.8339 24.4811 16.7845 24.5306L13.8123 27.5028C13.7628 27.5521 13.6958 27.5798 13.6259 27.5798C13.556 27.5798 13.489 27.5521 13.4395 27.5028Z" fill="white"/>
<path d="M13.6261 27.6503C13.5822 27.6505 13.5387 27.6419 13.4982 27.6251C13.4577 27.6084 13.4208 27.5837 13.3899 27.5526L9.13874 23.3015C9.07616 23.2389 9.04102 23.1539 9.04102 23.0654C9.04102 22.9768 9.07616 22.8919 9.13874 22.8292L12.1109 19.857C12.1736 19.7944 12.2586 19.7593 12.3471 19.7593C12.4357 19.7593 12.5206 19.7944 12.5833 19.857L16.8344 24.1081C16.897 24.1708 16.9321 24.2557 16.9321 24.3443C16.9321 24.4328 16.897 24.5178 16.8344 24.5805L13.8622 27.5526C13.8313 27.5837 13.7945 27.6084 13.7539 27.6251C13.7134 27.6419 13.6699 27.6505 13.6261 27.6503ZM12.3471 19.9001C12.3217 19.9 12.2966 19.905 12.2732 19.9147C12.2497 19.9243 12.2284 19.9386 12.2106 19.9566L9.23832 22.9288C9.20216 22.965 9.18186 23.0142 9.18186 23.0654C9.18186 23.1166 9.20216 23.1657 9.23832 23.202L13.4895 27.4531C13.5263 27.4881 13.5752 27.5076 13.6261 27.5076C13.6769 27.5076 13.7258 27.4881 13.7626 27.4531L16.7348 24.4809C16.771 24.4446 16.7913 24.3955 16.7913 24.3443C16.7913 24.2931 16.771 24.244 16.7348 24.2077L12.4837 19.9566C12.4658 19.9386 12.4445 19.9244 12.4211 19.9147C12.3976 19.905 12.3725 19.9 12.3471 19.9001Z" fill="#E6E6E6"/>
<path d="M11.8376 20.3019C11.7664 20.2108 11.7161 20.1052 11.6901 19.9926C11.6642 19.88 11.6632 19.763 11.6874 19.65C11.7115 19.5369 11.7601 19.4306 11.8298 19.3384C11.8995 19.2462 11.9886 19.1703 12.0907 19.1163L12.1576 12.0166L13.4846 12.6256L13.1927 19.492C13.2722 19.6696 13.2837 19.8702 13.2251 20.0558C13.1665 20.2414 13.0419 20.399 12.8749 20.4988C12.7078 20.5987 12.51 20.6338 12.3188 20.5975C12.1276 20.5612 11.9564 20.456 11.8376 20.3019Z" fill="#9E616A"/>
<path d="M11.873 10.2195C11.873 10.2195 13.1639 9.59336 13.3424 10.7747C13.5209 11.9561 14.2552 15.0307 14.2552 15.0307L12.027 14.8731L11.873 10.2195Z" fill="#9E616A"/>
<path d="M11.8376 20.3019C11.7664 20.2108 11.7161 20.1052 11.6901 19.9926C11.6642 19.88 11.6632 19.763 11.6874 19.65C11.7115 19.5369 11.7601 19.4306 11.8298 19.3384C11.8995 19.2462 11.9886 19.1703 12.0907 19.1163L12.1576 12.0166L13.4846 12.6256L13.1927 19.492C13.2722 19.6696 13.2837 19.8702 13.2251 20.0558C13.1665 20.2414 13.0419 20.399 12.8749 20.4988C12.7078 20.5987 12.51 20.6338 12.3188 20.5975C12.1276 20.5612 11.9564 20.456 11.8376 20.3019Z" fill="#9E616A"/>
<path d="M11.873 10.2195C11.873 10.2195 13.1639 9.59336 13.3424 10.7747C13.5209 11.9561 14.2552 15.0307 14.2552 15.0307L12.027 14.8731L11.873 10.2195Z" fill="#6C63FF"/>
</g>
<defs>
<clipPath id="clip0_521_700">
<rect width="38.7834" height="40" fill="white"/>
</clipPath>
</defs>
</svg>
